G04 #@! TF.GenerationSoftware,KiCad,Pcbnew,9.0.4*
G04 #@! TF.CreationDate,2025-10-31T22:45:53+03:00*
G04 #@! TF.ProjectId,ECAD_main,45434144-5f6d-4616-996e-2e6b69636164,rev?*
G04 #@! TF.SameCoordinates,Original*
G04 #@! TF.FileFunction,Legend,Top*
G04 #@! TF.FilePolarity,Positive*
%FSLAX46Y46*%
G04 Gerber Fmt 4.6, Leading zero omitted, Abs format (unit mm)*
G04 Created by KiCad (PCBNEW 9.0.4) date 2025-10-31 22:45:53*
%MOMM*%
%LPD*%
G01*
G04 APERTURE LIST*
%ADD10C,0.150000*%
%ADD11C,0.200000*%
G04 APERTURE END LIST*
D10*
X153133333Y-110554819D02*
X152800000Y-110078628D01*
X152561905Y-110554819D02*
X152561905Y-109554819D01*
X152561905Y-109554819D02*
X152942857Y-109554819D01*
X152942857Y-109554819D02*
X153038095Y-109602438D01*
X153038095Y-109602438D02*
X153085714Y-109650057D01*
X153085714Y-109650057D02*
X153133333Y-109745295D01*
X153133333Y-109745295D02*
X153133333Y-109888152D01*
X153133333Y-109888152D02*
X153085714Y-109983390D01*
X153085714Y-109983390D02*
X153038095Y-110031009D01*
X153038095Y-110031009D02*
X152942857Y-110078628D01*
X152942857Y-110078628D02*
X152561905Y-110078628D01*
X153990476Y-109554819D02*
X153800000Y-109554819D01*
X153800000Y-109554819D02*
X153704762Y-109602438D01*
X153704762Y-109602438D02*
X153657143Y-109650057D01*
X153657143Y-109650057D02*
X153561905Y-109792914D01*
X153561905Y-109792914D02*
X153514286Y-109983390D01*
X153514286Y-109983390D02*
X153514286Y-110364342D01*
X153514286Y-110364342D02*
X153561905Y-110459580D01*
X153561905Y-110459580D02*
X153609524Y-110507200D01*
X153609524Y-110507200D02*
X153704762Y-110554819D01*
X153704762Y-110554819D02*
X153895238Y-110554819D01*
X153895238Y-110554819D02*
X153990476Y-110507200D01*
X153990476Y-110507200D02*
X154038095Y-110459580D01*
X154038095Y-110459580D02*
X154085714Y-110364342D01*
X154085714Y-110364342D02*
X154085714Y-110126247D01*
X154085714Y-110126247D02*
X154038095Y-110031009D01*
X154038095Y-110031009D02*
X153990476Y-109983390D01*
X153990476Y-109983390D02*
X153895238Y-109935771D01*
X153895238Y-109935771D02*
X153704762Y-109935771D01*
X153704762Y-109935771D02*
X153609524Y-109983390D01*
X153609524Y-109983390D02*
X153561905Y-110031009D01*
X153561905Y-110031009D02*
X153514286Y-110126247D01*
X138633333Y-110854819D02*
X138300000Y-110378628D01*
X138061905Y-110854819D02*
X138061905Y-109854819D01*
X138061905Y-109854819D02*
X138442857Y-109854819D01*
X138442857Y-109854819D02*
X138538095Y-109902438D01*
X138538095Y-109902438D02*
X138585714Y-109950057D01*
X138585714Y-109950057D02*
X138633333Y-110045295D01*
X138633333Y-110045295D02*
X138633333Y-110188152D01*
X138633333Y-110188152D02*
X138585714Y-110283390D01*
X138585714Y-110283390D02*
X138538095Y-110331009D01*
X138538095Y-110331009D02*
X138442857Y-110378628D01*
X138442857Y-110378628D02*
X138061905Y-110378628D01*
X139490476Y-110188152D02*
X139490476Y-110854819D01*
X139252381Y-109807200D02*
X139014286Y-110521485D01*
X139014286Y-110521485D02*
X139633333Y-110521485D01*
X147609524Y-110044819D02*
X147942857Y-111044819D01*
X147942857Y-111044819D02*
X148276190Y-110044819D01*
X148466667Y-110044819D02*
X149038095Y-110044819D01*
X148752381Y-111044819D02*
X148752381Y-110044819D01*
X149323810Y-110140057D02*
X149371429Y-110092438D01*
X149371429Y-110092438D02*
X149466667Y-110044819D01*
X149466667Y-110044819D02*
X149704762Y-110044819D01*
X149704762Y-110044819D02*
X149800000Y-110092438D01*
X149800000Y-110092438D02*
X149847619Y-110140057D01*
X149847619Y-110140057D02*
X149895238Y-110235295D01*
X149895238Y-110235295D02*
X149895238Y-110330533D01*
X149895238Y-110330533D02*
X149847619Y-110473390D01*
X149847619Y-110473390D02*
X149276191Y-111044819D01*
X149276191Y-111044819D02*
X149895238Y-111044819D01*
X147509524Y-99854819D02*
X147842857Y-100854819D01*
X147842857Y-100854819D02*
X148176190Y-99854819D01*
X148366667Y-99854819D02*
X148938095Y-99854819D01*
X148652381Y-100854819D02*
X148652381Y-99854819D01*
X149795238Y-100854819D02*
X149223810Y-100854819D01*
X149509524Y-100854819D02*
X149509524Y-99854819D01*
X149509524Y-99854819D02*
X149414286Y-99997676D01*
X149414286Y-99997676D02*
X149319048Y-100092914D01*
X149319048Y-100092914D02*
X149223810Y-100140533D01*
X138662723Y-100223749D02*
X138329390Y-99747558D01*
X138091295Y-100223749D02*
X138091295Y-99223749D01*
X138091295Y-99223749D02*
X138472247Y-99223749D01*
X138472247Y-99223749D02*
X138567485Y-99271368D01*
X138567485Y-99271368D02*
X138615104Y-99318987D01*
X138615104Y-99318987D02*
X138662723Y-99414225D01*
X138662723Y-99414225D02*
X138662723Y-99557082D01*
X138662723Y-99557082D02*
X138615104Y-99652320D01*
X138615104Y-99652320D02*
X138567485Y-99699939D01*
X138567485Y-99699939D02*
X138472247Y-99747558D01*
X138472247Y-99747558D02*
X138091295Y-99747558D01*
X139615104Y-100223749D02*
X139043676Y-100223749D01*
X139329390Y-100223749D02*
X139329390Y-99223749D01*
X139329390Y-99223749D02*
X139234152Y-99366606D01*
X139234152Y-99366606D02*
X139138914Y-99461844D01*
X139138914Y-99461844D02*
X139043676Y-99509463D01*
X153233333Y-100154819D02*
X152900000Y-99678628D01*
X152661905Y-100154819D02*
X152661905Y-99154819D01*
X152661905Y-99154819D02*
X153042857Y-99154819D01*
X153042857Y-99154819D02*
X153138095Y-99202438D01*
X153138095Y-99202438D02*
X153185714Y-99250057D01*
X153185714Y-99250057D02*
X153233333Y-99345295D01*
X153233333Y-99345295D02*
X153233333Y-99488152D01*
X153233333Y-99488152D02*
X153185714Y-99583390D01*
X153185714Y-99583390D02*
X153138095Y-99631009D01*
X153138095Y-99631009D02*
X153042857Y-99678628D01*
X153042857Y-99678628D02*
X152661905Y-99678628D01*
X153566667Y-99154819D02*
X154185714Y-99154819D01*
X154185714Y-99154819D02*
X153852381Y-99535771D01*
X153852381Y-99535771D02*
X153995238Y-99535771D01*
X153995238Y-99535771D02*
X154090476Y-99583390D01*
X154090476Y-99583390D02*
X154138095Y-99631009D01*
X154138095Y-99631009D02*
X154185714Y-99726247D01*
X154185714Y-99726247D02*
X154185714Y-99964342D01*
X154185714Y-99964342D02*
X154138095Y-100059580D01*
X154138095Y-100059580D02*
X154090476Y-100107200D01*
X154090476Y-100107200D02*
X153995238Y-100154819D01*
X153995238Y-100154819D02*
X153709524Y-100154819D01*
X153709524Y-100154819D02*
X153614286Y-100107200D01*
X153614286Y-100107200D02*
X153566667Y-100059580D01*
D11*
G04 #@! TO.C,R10*
X145750000Y-104068930D02*
X146138760Y-104068930D01*
X145750000Y-105931070D02*
X145750000Y-104068930D01*
X145750000Y-105931070D02*
X146138760Y-105931070D01*
X146138760Y-104068930D02*
X148861240Y-104068930D01*
X146138760Y-105931070D02*
X148861240Y-105931070D01*
X148861240Y-104068930D02*
X149250000Y-104068930D01*
X148861240Y-105931070D02*
X149250000Y-105931070D01*
X149250000Y-105931070D02*
X149250000Y-104068930D01*
G04 #@! TO.C,R8*
X158590000Y-109058930D02*
X158978760Y-109058930D01*
X158590000Y-110921070D02*
X158590000Y-109058930D01*
X158590000Y-110921070D02*
X158978760Y-110921070D01*
X158978760Y-109058930D02*
X161701240Y-109058930D01*
X158978760Y-110921070D02*
X161701240Y-110921070D01*
X161701240Y-109058930D02*
X162090000Y-109058930D01*
X161701240Y-110921070D02*
X162090000Y-110921070D01*
X162090000Y-110921070D02*
X162090000Y-109058930D01*
G04 #@! TO.C,HL1*
X141000000Y-101348000D02*
X141000000Y-108552000D01*
X141000000Y-101348000D02*
X143800000Y-101348000D01*
X141000000Y-108552000D02*
X143800000Y-108552000D01*
X143650000Y-100950000D02*
X144650000Y-100950000D01*
X143800000Y-101348000D02*
X143800000Y-108552000D01*
X144150000Y-100450000D02*
X144150000Y-101450000D01*
G04 #@! TO.C,C3*
X154639920Y-106959020D02*
X154639920Y-108821150D01*
X155028680Y-106959020D02*
X154639920Y-106959020D01*
X155028680Y-108821150D02*
X154639920Y-108821150D01*
X157751160Y-106959020D02*
X155028680Y-106959020D01*
X157751160Y-108821150D02*
X155028680Y-108821150D01*
X158139920Y-106959020D02*
X157751160Y-106959020D01*
X158139920Y-106959020D02*
X158139920Y-108821150D01*
X158139920Y-108821150D02*
X157751160Y-108821150D01*
G04 #@! TO.C,R7*
X158589390Y-106938930D02*
X158589390Y-108801070D01*
X158978150Y-106938930D02*
X158589390Y-106938930D01*
X158978150Y-108801070D02*
X158589390Y-108801070D01*
X161700630Y-106938930D02*
X158978150Y-106938930D01*
X161700630Y-108801070D02*
X158978150Y-108801070D01*
X162089390Y-106938930D02*
X161700630Y-106938930D01*
X162089390Y-106938930D02*
X162089390Y-108801070D01*
X162089390Y-108801070D02*
X161700630Y-108801070D01*
G04 #@! TO.C,C4*
X158530080Y-99228850D02*
X158918840Y-99228850D01*
X158530080Y-101090980D02*
X158530080Y-99228850D01*
X158530080Y-101090980D02*
X158918840Y-101090980D01*
X158918840Y-99228850D02*
X161641320Y-99228850D01*
X158918840Y-101090980D02*
X161641320Y-101090980D01*
X161641320Y-99228850D02*
X162030080Y-99228850D01*
X161641320Y-101090980D02*
X162030080Y-101090980D01*
X162030080Y-101090980D02*
X162030080Y-99228850D01*
G04 #@! TO.C,R6*
X154650610Y-109108930D02*
X154650610Y-110971070D01*
X155039370Y-109108930D02*
X154650610Y-109108930D01*
X155039370Y-110971070D02*
X154650610Y-110971070D01*
X157761850Y-109108930D02*
X155039370Y-109108930D01*
X157761850Y-110971070D02*
X155039370Y-110971070D01*
X158150610Y-109108930D02*
X157761850Y-109108930D01*
X158150610Y-109108930D02*
X158150610Y-110971070D01*
X158150610Y-110971070D02*
X157761850Y-110971070D01*
G04 #@! TO.C,R2*
X137050000Y-102918930D02*
X137050000Y-104781070D01*
X137438760Y-102918930D02*
X137050000Y-102918930D01*
X137438760Y-104781070D02*
X137050000Y-104781070D01*
X140161240Y-102918930D02*
X137438760Y-102918930D01*
X140161240Y-104781070D02*
X137438760Y-104781070D01*
X140550000Y-102918930D02*
X140161240Y-102918930D01*
X140550000Y-102918930D02*
X140550000Y-104781070D01*
X140550000Y-104781070D02*
X140161240Y-104781070D01*
G04 #@! TO.C,R4*
X137050000Y-107508930D02*
X137438760Y-107508930D01*
X137050000Y-109371070D02*
X137050000Y-107508930D01*
X137050000Y-109371070D02*
X137438760Y-109371070D01*
X137438760Y-107508930D02*
X140161240Y-107508930D01*
X137438760Y-109371070D02*
X140161240Y-109371070D01*
X140161240Y-107508930D02*
X140550000Y-107508930D01*
X140161240Y-109371070D02*
X140550000Y-109371070D01*
X140550000Y-109371070D02*
X140550000Y-107508930D01*
G04 #@! TO.C,VT2*
X143730000Y-107780000D02*
X144040000Y-107470000D01*
X143730000Y-110590000D02*
X143730000Y-107780000D01*
X143730000Y-110590000D02*
X147052310Y-110590000D01*
X144040000Y-107470000D02*
X147052310Y-107470000D01*
X147052310Y-110590000D02*
X147052310Y-107470000D01*
G04 #@! TO.C,VT1*
X143704870Y-99560000D02*
X144014870Y-99250000D01*
X143704870Y-102370000D02*
X143704870Y-99560000D01*
X143704870Y-102370000D02*
X147027180Y-102370000D01*
X144014870Y-99250000D02*
X147027180Y-99250000D01*
X147027180Y-102370000D02*
X147027180Y-99250000D01*
G04 #@! TO.C,R9*
X158540000Y-101288930D02*
X158540000Y-103151070D01*
X158928760Y-101288930D02*
X158540000Y-101288930D01*
X158928760Y-103151070D02*
X158540000Y-103151070D01*
X161651240Y-101288930D02*
X158928760Y-101288930D01*
X161651240Y-103151070D02*
X158928760Y-103151070D01*
X162040000Y-101288930D02*
X161651240Y-101288930D01*
X162040000Y-101288930D02*
X162040000Y-103151070D01*
X162040000Y-103151070D02*
X161651240Y-103151070D01*
G04 #@! TO.C,DD1*
X154943600Y-103714435D02*
X155170210Y-103487835D01*
X154943600Y-106551195D02*
X154943600Y-103714435D01*
X154943600Y-106551195D02*
X158905590Y-106551195D01*
X155170210Y-103487835D02*
X158905590Y-103487835D01*
X158905590Y-106551195D02*
X158905590Y-103487835D01*
G04 #@! TO.C,HL2*
X151000000Y-101498000D02*
X151000000Y-108702000D01*
X151000000Y-101498000D02*
X153800000Y-101498000D01*
X151000000Y-108702000D02*
X153800000Y-108702000D01*
X153650000Y-101100000D02*
X154650000Y-101100000D01*
X153800000Y-101498000D02*
X153800000Y-108702000D01*
X154150000Y-100600000D02*
X154150000Y-101600000D01*
G04 #@! TO.C,R1*
X137079390Y-100568930D02*
X137468150Y-100568930D01*
X137079390Y-102431070D02*
X137079390Y-100568930D01*
X137079390Y-102431070D02*
X137468150Y-102431070D01*
X137468150Y-100568930D02*
X140190630Y-100568930D01*
X137468150Y-102431070D02*
X140190630Y-102431070D01*
X140190630Y-100568930D02*
X140579390Y-100568930D01*
X140190630Y-102431070D02*
X140579390Y-102431070D01*
X140579390Y-102431070D02*
X140579390Y-100568930D01*
G04 #@! TO.C,R3*
X154660000Y-99238930D02*
X155048760Y-99238930D01*
X154660000Y-101101070D02*
X154660000Y-99238930D01*
X154660000Y-101101070D02*
X155048760Y-101101070D01*
X155048760Y-99238930D02*
X157771240Y-99238930D01*
X155048760Y-101101070D02*
X157771240Y-101101070D01*
X157771240Y-99238930D02*
X158160000Y-99238930D01*
X157771240Y-101101070D02*
X158160000Y-101101070D01*
X158160000Y-101101070D02*
X158160000Y-99238930D01*
G04 #@! TO.C,C2*
X160131140Y-103296455D02*
X160131140Y-103685215D01*
X160131140Y-103296455D02*
X161993270Y-103296455D01*
X160131140Y-103685215D02*
X160131140Y-106407695D01*
X160131140Y-106407695D02*
X160131140Y-106796455D01*
X160131140Y-106796455D02*
X161993270Y-106796455D01*
X161993270Y-103296455D02*
X161993270Y-103685215D01*
X161993270Y-103685215D02*
X161993270Y-106407695D01*
X161993270Y-106407695D02*
X161993270Y-106796455D01*
G04 #@! TO.C,C1*
X154639920Y-101339020D02*
X154639920Y-103201150D01*
X155028680Y-101339020D02*
X154639920Y-101339020D01*
X155028680Y-103201150D02*
X154639920Y-103201150D01*
X157751160Y-101339020D02*
X155028680Y-101339020D01*
X157751160Y-103201150D02*
X155028680Y-103201150D01*
X158139920Y-101339020D02*
X157751160Y-101339020D01*
X158139920Y-101339020D02*
X158139920Y-103201150D01*
X158139920Y-103201150D02*
X157751160Y-103201150D01*
G04 #@! TO.C,R5*
X137050610Y-105228930D02*
X137050610Y-107091070D01*
X137439370Y-105228930D02*
X137050610Y-105228930D01*
X137439370Y-107091070D02*
X137050610Y-107091070D01*
X140161850Y-105228930D02*
X137439370Y-105228930D01*
X140161850Y-107091070D02*
X137439370Y-107091070D01*
X140550610Y-105228930D02*
X140161850Y-105228930D01*
X140550610Y-105228930D02*
X140550610Y-107091070D01*
X140550610Y-107091070D02*
X140161850Y-107091070D01*
G04 #@! TD*
M02*
