G04 #@! TF.GenerationSoftware,KiCad,Pcbnew,9.0.4*
G04 #@! TF.CreationDate,2025-10-31T22:35:57+03:00*
G04 #@! TF.ProjectId,ECAD_main,45434144-5f6d-4616-996e-2e6b69636164,rev?*
G04 #@! TF.SameCoordinates,Original*
G04 #@! TF.FileFunction,Soldermask,Top*
G04 #@! TF.FilePolarity,Negative*
%FSLAX46Y46*%
G04 Gerber Fmt 4.6, Leading zero omitted, Abs format (unit mm)*
G04 Created by KiCad (PCBNEW 9.0.4) date 2025-10-31 22:35:57*
%MOMM*%
%LPD*%
G01*
G04 APERTURE LIST*
%ADD10C,2.300000*%
%ADD11C,1.703200*%
G04 APERTURE END LIST*
G04 #@! TO.C,R10*
G36*
G01*
X146037160Y-105531065D02*
X146037160Y-104468935D01*
G75*
G02*
X146138760Y-104367335I101600J0D01*
G01*
X147202460Y-104367335D01*
G75*
G02*
X147304060Y-104468935I0J-101600D01*
G01*
X147304060Y-105531065D01*
G75*
G02*
X147202460Y-105632665I-101600J0D01*
G01*
X146138760Y-105632665D01*
G75*
G02*
X146037160Y-105531065I0J101600D01*
G01*
G37*
G36*
G01*
X147695940Y-105531065D02*
X147695940Y-104468935D01*
G75*
G02*
X147797540Y-104367335I101600J0D01*
G01*
X148861240Y-104367335D01*
G75*
G02*
X148962840Y-104468935I0J-101600D01*
G01*
X148962840Y-105531065D01*
G75*
G02*
X148861240Y-105632665I-101600J0D01*
G01*
X147797540Y-105632665D01*
G75*
G02*
X147695940Y-105531065I0J101600D01*
G01*
G37*
G04 #@! TD*
G04 #@! TO.C,R8*
G36*
G01*
X158877160Y-110521065D02*
X158877160Y-109458935D01*
G75*
G02*
X158978760Y-109357335I101600J0D01*
G01*
X160042460Y-109357335D01*
G75*
G02*
X160144060Y-109458935I0J-101600D01*
G01*
X160144060Y-110521065D01*
G75*
G02*
X160042460Y-110622665I-101600J0D01*
G01*
X158978760Y-110622665D01*
G75*
G02*
X158877160Y-110521065I0J101600D01*
G01*
G37*
G36*
G01*
X160535940Y-110521065D02*
X160535940Y-109458935D01*
G75*
G02*
X160637540Y-109357335I101600J0D01*
G01*
X161701240Y-109357335D01*
G75*
G02*
X161802840Y-109458935I0J-101600D01*
G01*
X161802840Y-110521065D01*
G75*
G02*
X161701240Y-110622665I-101600J0D01*
G01*
X160637540Y-110622665D01*
G75*
G02*
X160535940Y-110521065I0J101600D01*
G01*
G37*
G04 #@! TD*
G04 #@! TO.C,*
G36*
G01*
X135880050Y-101513095D02*
X135880050Y-102513095D01*
G75*
G02*
X135780050Y-102613095I-100000J0D01*
G01*
X133780050Y-102613095D01*
G75*
G02*
X133680050Y-102513095I0J100000D01*
G01*
X133680050Y-101513095D01*
G75*
G02*
X133780050Y-101413095I100000J0D01*
G01*
X135780050Y-101413095D01*
G75*
G02*
X135880050Y-101513095I0J-100000D01*
G01*
G37*
G04 #@! TD*
D10*
G04 #@! TO.C,HL1*
X142400000Y-104950000D03*
G36*
G01*
X142775000Y-103401600D02*
X142025000Y-103401600D01*
G75*
G02*
X141923400Y-103300000I0J101600D01*
G01*
X141923400Y-101600000D01*
G75*
G02*
X142025000Y-101498400I101600J0D01*
G01*
X142775000Y-101498400D01*
G75*
G02*
X142876600Y-101600000I0J-101600D01*
G01*
X142876600Y-103300000D01*
G75*
G02*
X142775000Y-103401600I-101600J0D01*
G01*
G37*
G36*
G01*
X142775000Y-108401600D02*
X142025000Y-108401600D01*
G75*
G02*
X141923400Y-108300000I0J101600D01*
G01*
X141923400Y-106600000D01*
G75*
G02*
X142025000Y-106498400I101600J0D01*
G01*
X142775000Y-106498400D01*
G75*
G02*
X142876600Y-106600000I0J-101600D01*
G01*
X142876600Y-108300000D01*
G75*
G02*
X142775000Y-108401600I-101600J0D01*
G01*
G37*
G04 #@! TD*
G04 #@! TO.C,C3*
G36*
G01*
X157852760Y-107359015D02*
X157852760Y-108421145D01*
G75*
G02*
X157751160Y-108522745I-101600J0D01*
G01*
X156687460Y-108522745D01*
G75*
G02*
X156585860Y-108421145I0J101600D01*
G01*
X156585860Y-107359015D01*
G75*
G02*
X156687460Y-107257415I101600J0D01*
G01*
X157751160Y-107257415D01*
G75*
G02*
X157852760Y-107359015I0J-101600D01*
G01*
G37*
G36*
G01*
X156193980Y-107359015D02*
X156193980Y-108421145D01*
G75*
G02*
X156092380Y-108522745I-101600J0D01*
G01*
X155028680Y-108522745D01*
G75*
G02*
X154927080Y-108421145I0J101600D01*
G01*
X154927080Y-107359015D01*
G75*
G02*
X155028680Y-107257415I101600J0D01*
G01*
X156092380Y-107257415D01*
G75*
G02*
X156193980Y-107359015I0J-101600D01*
G01*
G37*
G04 #@! TD*
G04 #@! TO.C,*
G36*
G01*
X135880050Y-103513095D02*
X135880050Y-104513095D01*
G75*
G02*
X135780050Y-104613095I-100000J0D01*
G01*
X133780050Y-104613095D01*
G75*
G02*
X133680050Y-104513095I0J100000D01*
G01*
X133680050Y-103513095D01*
G75*
G02*
X133780050Y-103413095I100000J0D01*
G01*
X135780050Y-103413095D01*
G75*
G02*
X135880050Y-103513095I0J-100000D01*
G01*
G37*
G04 #@! TD*
G04 #@! TO.C,R7*
G36*
G01*
X161802230Y-107338935D02*
X161802230Y-108401065D01*
G75*
G02*
X161700630Y-108502665I-101600J0D01*
G01*
X160636930Y-108502665D01*
G75*
G02*
X160535330Y-108401065I0J101600D01*
G01*
X160535330Y-107338935D01*
G75*
G02*
X160636930Y-107237335I101600J0D01*
G01*
X161700630Y-107237335D01*
G75*
G02*
X161802230Y-107338935I0J-101600D01*
G01*
G37*
G36*
G01*
X160143450Y-107338935D02*
X160143450Y-108401065D01*
G75*
G02*
X160041850Y-108502665I-101600J0D01*
G01*
X158978150Y-108502665D01*
G75*
G02*
X158876550Y-108401065I0J101600D01*
G01*
X158876550Y-107338935D01*
G75*
G02*
X158978150Y-107237335I101600J0D01*
G01*
X160041850Y-107237335D01*
G75*
G02*
X160143450Y-107338935I0J-101600D01*
G01*
G37*
G04 #@! TD*
G04 #@! TO.C,C4*
G36*
G01*
X158817240Y-100690985D02*
X158817240Y-99628855D01*
G75*
G02*
X158918840Y-99527255I101600J0D01*
G01*
X159982540Y-99527255D01*
G75*
G02*
X160084140Y-99628855I0J-101600D01*
G01*
X160084140Y-100690985D01*
G75*
G02*
X159982540Y-100792585I-101600J0D01*
G01*
X158918840Y-100792585D01*
G75*
G02*
X158817240Y-100690985I0J101600D01*
G01*
G37*
G36*
G01*
X160476020Y-100690985D02*
X160476020Y-99628855D01*
G75*
G02*
X160577620Y-99527255I101600J0D01*
G01*
X161641320Y-99527255D01*
G75*
G02*
X161742920Y-99628855I0J-101600D01*
G01*
X161742920Y-100690985D01*
G75*
G02*
X161641320Y-100792585I-101600J0D01*
G01*
X160577620Y-100792585D01*
G75*
G02*
X160476020Y-100690985I0J101600D01*
G01*
G37*
G04 #@! TD*
G04 #@! TO.C,R6*
G36*
G01*
X157863450Y-109508935D02*
X157863450Y-110571065D01*
G75*
G02*
X157761850Y-110672665I-101600J0D01*
G01*
X156698150Y-110672665D01*
G75*
G02*
X156596550Y-110571065I0J101600D01*
G01*
X156596550Y-109508935D01*
G75*
G02*
X156698150Y-109407335I101600J0D01*
G01*
X157761850Y-109407335D01*
G75*
G02*
X157863450Y-109508935I0J-101600D01*
G01*
G37*
G36*
G01*
X156204670Y-109508935D02*
X156204670Y-110571065D01*
G75*
G02*
X156103070Y-110672665I-101600J0D01*
G01*
X155039370Y-110672665D01*
G75*
G02*
X154937770Y-110571065I0J101600D01*
G01*
X154937770Y-109508935D01*
G75*
G02*
X155039370Y-109407335I101600J0D01*
G01*
X156103070Y-109407335D01*
G75*
G02*
X156204670Y-109508935I0J-101600D01*
G01*
G37*
G04 #@! TD*
G04 #@! TO.C,R2*
G36*
G01*
X140262840Y-103318935D02*
X140262840Y-104381065D01*
G75*
G02*
X140161240Y-104482665I-101600J0D01*
G01*
X139097540Y-104482665D01*
G75*
G02*
X138995940Y-104381065I0J101600D01*
G01*
X138995940Y-103318935D01*
G75*
G02*
X139097540Y-103217335I101600J0D01*
G01*
X140161240Y-103217335D01*
G75*
G02*
X140262840Y-103318935I0J-101600D01*
G01*
G37*
G36*
G01*
X138604060Y-103318935D02*
X138604060Y-104381065D01*
G75*
G02*
X138502460Y-104482665I-101600J0D01*
G01*
X137438760Y-104482665D01*
G75*
G02*
X137337160Y-104381065I0J101600D01*
G01*
X137337160Y-103318935D01*
G75*
G02*
X137438760Y-103217335I101600J0D01*
G01*
X138502460Y-103217335D01*
G75*
G02*
X138604060Y-103318935I0J-101600D01*
G01*
G37*
G04 #@! TD*
G04 #@! TO.C,*
G36*
G01*
X135880050Y-105513095D02*
X135880050Y-106513095D01*
G75*
G02*
X135780050Y-106613095I-100000J0D01*
G01*
X133780050Y-106613095D01*
G75*
G02*
X133680050Y-106513095I0J100000D01*
G01*
X133680050Y-105513095D01*
G75*
G02*
X133780050Y-105413095I100000J0D01*
G01*
X135780050Y-105413095D01*
G75*
G02*
X135880050Y-105513095I0J-100000D01*
G01*
G37*
G04 #@! TD*
G04 #@! TO.C,*
G36*
G01*
X135880050Y-107513095D02*
X135880050Y-108513095D01*
G75*
G02*
X135780050Y-108613095I-100000J0D01*
G01*
X133780050Y-108613095D01*
G75*
G02*
X133680050Y-108513095I0J100000D01*
G01*
X133680050Y-107513095D01*
G75*
G02*
X133780050Y-107413095I100000J0D01*
G01*
X135780050Y-107413095D01*
G75*
G02*
X135880050Y-107513095I0J-100000D01*
G01*
G37*
G04 #@! TD*
G04 #@! TO.C,R4*
G36*
G01*
X137337160Y-108971065D02*
X137337160Y-107908935D01*
G75*
G02*
X137438760Y-107807335I101600J0D01*
G01*
X138502460Y-107807335D01*
G75*
G02*
X138604060Y-107908935I0J-101600D01*
G01*
X138604060Y-108971065D01*
G75*
G02*
X138502460Y-109072665I-101600J0D01*
G01*
X137438760Y-109072665D01*
G75*
G02*
X137337160Y-108971065I0J101600D01*
G01*
G37*
G36*
G01*
X138995940Y-108971065D02*
X138995940Y-107908935D01*
G75*
G02*
X139097540Y-107807335I101600J0D01*
G01*
X140161240Y-107807335D01*
G75*
G02*
X140262840Y-107908935I0J-101600D01*
G01*
X140262840Y-108971065D01*
G75*
G02*
X140161240Y-109072665I-101600J0D01*
G01*
X139097540Y-109072665D01*
G75*
G02*
X138995940Y-108971065I0J101600D01*
G01*
G37*
G04 #@! TD*
G04 #@! TO.C,VT2*
G36*
G01*
X143906095Y-108346065D02*
X143906095Y-107813935D01*
G75*
G02*
X144007695Y-107712335I101600J0D01*
G01*
X145282045Y-107712335D01*
G75*
G02*
X145383645Y-107813935I0J-101600D01*
G01*
X145383645Y-108346065D01*
G75*
G02*
X145282045Y-108447665I-101600J0D01*
G01*
X144007695Y-108447665D01*
G75*
G02*
X143906095Y-108346065I0J101600D01*
G01*
G37*
G36*
G01*
X143906095Y-109980000D02*
X143906095Y-109980000D01*
G75*
G02*
X144273760Y-109612335I367665J0D01*
G01*
X145015980Y-109612335D01*
G75*
G02*
X145383645Y-109980000I0J-367665D01*
G01*
X145383645Y-109980000D01*
G75*
G02*
X145015980Y-110347665I-367665J0D01*
G01*
X144273760Y-110347665D01*
G75*
G02*
X143906095Y-109980000I0J367665D01*
G01*
G37*
G36*
G01*
X145576355Y-109030000D02*
X145576355Y-109030000D01*
G75*
G02*
X145944020Y-108662335I367665J0D01*
G01*
X146686240Y-108662335D01*
G75*
G02*
X147053905Y-109030000I0J-367665D01*
G01*
X147053905Y-109030000D01*
G75*
G02*
X146686240Y-109397665I-367665J0D01*
G01*
X145944020Y-109397665D01*
G75*
G02*
X145576355Y-109030000I0J367665D01*
G01*
G37*
G04 #@! TD*
G04 #@! TO.C,VT1*
G36*
G01*
X143880965Y-100126065D02*
X143880965Y-99593935D01*
G75*
G02*
X143982565Y-99492335I101600J0D01*
G01*
X145256915Y-99492335D01*
G75*
G02*
X145358515Y-99593935I0J-101600D01*
G01*
X145358515Y-100126065D01*
G75*
G02*
X145256915Y-100227665I-101600J0D01*
G01*
X143982565Y-100227665D01*
G75*
G02*
X143880965Y-100126065I0J101600D01*
G01*
G37*
G36*
G01*
X143880965Y-101760000D02*
X143880965Y-101760000D01*
G75*
G02*
X144248630Y-101392335I367665J0D01*
G01*
X144990850Y-101392335D01*
G75*
G02*
X145358515Y-101760000I0J-367665D01*
G01*
X145358515Y-101760000D01*
G75*
G02*
X144990850Y-102127665I-367665J0D01*
G01*
X144248630Y-102127665D01*
G75*
G02*
X143880965Y-101760000I0J367665D01*
G01*
G37*
G36*
G01*
X145551225Y-100810000D02*
X145551225Y-100810000D01*
G75*
G02*
X145918890Y-100442335I367665J0D01*
G01*
X146661110Y-100442335D01*
G75*
G02*
X147028775Y-100810000I0J-367665D01*
G01*
X147028775Y-100810000D01*
G75*
G02*
X146661110Y-101177665I-367665J0D01*
G01*
X145918890Y-101177665D01*
G75*
G02*
X145551225Y-100810000I0J367665D01*
G01*
G37*
G04 #@! TD*
G04 #@! TO.C,R9*
G36*
G01*
X161752840Y-101688935D02*
X161752840Y-102751065D01*
G75*
G02*
X161651240Y-102852665I-101600J0D01*
G01*
X160587540Y-102852665D01*
G75*
G02*
X160485940Y-102751065I0J101600D01*
G01*
X160485940Y-101688935D01*
G75*
G02*
X160587540Y-101587335I101600J0D01*
G01*
X161651240Y-101587335D01*
G75*
G02*
X161752840Y-101688935I0J-101600D01*
G01*
G37*
G36*
G01*
X160094060Y-101688935D02*
X160094060Y-102751065D01*
G75*
G02*
X159992460Y-102852665I-101600J0D01*
G01*
X158928760Y-102852665D01*
G75*
G02*
X158827160Y-102751065I0J101600D01*
G01*
X158827160Y-101688935D01*
G75*
G02*
X158928760Y-101587335I101600J0D01*
G01*
X159992460Y-101587335D01*
G75*
G02*
X160094060Y-101688935I0J-101600D01*
G01*
G37*
G04 #@! TD*
G04 #@! TO.C,DD1*
G36*
G01*
X155150155Y-104468685D02*
X155150155Y-103868685D01*
G75*
G02*
X155175155Y-103843685I25000J0D01*
G01*
X156639105Y-103843685D01*
G75*
G02*
X156664105Y-103868685I0J-25000D01*
G01*
X156664105Y-104468685D01*
G75*
G02*
X156639105Y-104493685I-25000J0D01*
G01*
X155175155Y-104493685D01*
G75*
G02*
X155150155Y-104468685I0J25000D01*
G01*
G37*
G36*
G01*
X155150155Y-105070955D02*
X155150155Y-105070955D01*
G75*
G02*
X155475155Y-104745955I325000J0D01*
G01*
X156339105Y-104745955D01*
G75*
G02*
X156664105Y-105070955I0J-325000D01*
G01*
X156664105Y-105070955D01*
G75*
G02*
X156339105Y-105395955I-325000J0D01*
G01*
X155475155Y-105395955D01*
G75*
G02*
X155150155Y-105070955I0J325000D01*
G01*
G37*
G36*
G01*
X155150155Y-105973235D02*
X155150155Y-105973235D01*
G75*
G02*
X155475155Y-105648235I325000J0D01*
G01*
X156339105Y-105648235D01*
G75*
G02*
X156664105Y-105973235I0J-325000D01*
G01*
X156664105Y-105973235D01*
G75*
G02*
X156339105Y-106298235I-325000J0D01*
G01*
X155475155Y-106298235D01*
G75*
G02*
X155150155Y-105973235I0J325000D01*
G01*
G37*
G36*
G01*
X157201065Y-105985385D02*
X157201065Y-105985385D01*
G75*
G02*
X157526065Y-105660385I325000J0D01*
G01*
X158390015Y-105660385D01*
G75*
G02*
X158715015Y-105985385I0J-325000D01*
G01*
X158715015Y-105985385D01*
G75*
G02*
X158390015Y-106310385I-325000J0D01*
G01*
X157526065Y-106310385D01*
G75*
G02*
X157201065Y-105985385I0J325000D01*
G01*
G37*
G36*
G01*
X157201065Y-104140545D02*
X157201065Y-104140545D01*
G75*
G02*
X157526065Y-103815545I325000J0D01*
G01*
X158390015Y-103815545D01*
G75*
G02*
X158715015Y-104140545I0J-325000D01*
G01*
X158715015Y-104140545D01*
G75*
G02*
X158390015Y-104465545I-325000J0D01*
G01*
X157526065Y-104465545D01*
G75*
G02*
X157201065Y-104140545I0J325000D01*
G01*
G37*
G04 #@! TD*
G04 #@! TO.C,HL2*
X152400000Y-105100000D03*
G36*
G01*
X152775000Y-103551600D02*
X152025000Y-103551600D01*
G75*
G02*
X151923400Y-103450000I0J101600D01*
G01*
X151923400Y-101750000D01*
G75*
G02*
X152025000Y-101648400I101600J0D01*
G01*
X152775000Y-101648400D01*
G75*
G02*
X152876600Y-101750000I0J-101600D01*
G01*
X152876600Y-103450000D01*
G75*
G02*
X152775000Y-103551600I-101600J0D01*
G01*
G37*
G36*
G01*
X152775000Y-108551600D02*
X152025000Y-108551600D01*
G75*
G02*
X151923400Y-108450000I0J101600D01*
G01*
X151923400Y-106750000D01*
G75*
G02*
X152025000Y-106648400I101600J0D01*
G01*
X152775000Y-106648400D01*
G75*
G02*
X152876600Y-106750000I0J-101600D01*
G01*
X152876600Y-108450000D01*
G75*
G02*
X152775000Y-108551600I-101600J0D01*
G01*
G37*
G04 #@! TD*
G04 #@! TO.C,R1*
G36*
G01*
X137366550Y-102031065D02*
X137366550Y-100968935D01*
G75*
G02*
X137468150Y-100867335I101600J0D01*
G01*
X138531850Y-100867335D01*
G75*
G02*
X138633450Y-100968935I0J-101600D01*
G01*
X138633450Y-102031065D01*
G75*
G02*
X138531850Y-102132665I-101600J0D01*
G01*
X137468150Y-102132665D01*
G75*
G02*
X137366550Y-102031065I0J101600D01*
G01*
G37*
G36*
G01*
X139025330Y-102031065D02*
X139025330Y-100968935D01*
G75*
G02*
X139126930Y-100867335I101600J0D01*
G01*
X140190630Y-100867335D01*
G75*
G02*
X140292230Y-100968935I0J-101600D01*
G01*
X140292230Y-102031065D01*
G75*
G02*
X140190630Y-102132665I-101600J0D01*
G01*
X139126930Y-102132665D01*
G75*
G02*
X139025330Y-102031065I0J101600D01*
G01*
G37*
G04 #@! TD*
G04 #@! TO.C,R3*
G36*
G01*
X154947160Y-100701065D02*
X154947160Y-99638935D01*
G75*
G02*
X155048760Y-99537335I101600J0D01*
G01*
X156112460Y-99537335D01*
G75*
G02*
X156214060Y-99638935I0J-101600D01*
G01*
X156214060Y-100701065D01*
G75*
G02*
X156112460Y-100802665I-101600J0D01*
G01*
X155048760Y-100802665D01*
G75*
G02*
X154947160Y-100701065I0J101600D01*
G01*
G37*
G36*
G01*
X156605940Y-100701065D02*
X156605940Y-99638935D01*
G75*
G02*
X156707540Y-99537335I101600J0D01*
G01*
X157771240Y-99537335D01*
G75*
G02*
X157872840Y-99638935I0J-101600D01*
G01*
X157872840Y-100701065D01*
G75*
G02*
X157771240Y-100802665I-101600J0D01*
G01*
X156707540Y-100802665D01*
G75*
G02*
X156605940Y-100701065I0J101600D01*
G01*
G37*
G04 #@! TD*
G04 #@! TO.C,C2*
G36*
G01*
X160531135Y-103583615D02*
X161593265Y-103583615D01*
G75*
G02*
X161694865Y-103685215I0J-101600D01*
G01*
X161694865Y-104748915D01*
G75*
G02*
X161593265Y-104850515I-101600J0D01*
G01*
X160531135Y-104850515D01*
G75*
G02*
X160429535Y-104748915I0J101600D01*
G01*
X160429535Y-103685215D01*
G75*
G02*
X160531135Y-103583615I101600J0D01*
G01*
G37*
G36*
G01*
X160531135Y-105242395D02*
X161593265Y-105242395D01*
G75*
G02*
X161694865Y-105343995I0J-101600D01*
G01*
X161694865Y-106407695D01*
G75*
G02*
X161593265Y-106509295I-101600J0D01*
G01*
X160531135Y-106509295D01*
G75*
G02*
X160429535Y-106407695I0J101600D01*
G01*
X160429535Y-105343995D01*
G75*
G02*
X160531135Y-105242395I101600J0D01*
G01*
G37*
G04 #@! TD*
G04 #@! TO.C,C1*
G36*
G01*
X157852760Y-101739015D02*
X157852760Y-102801145D01*
G75*
G02*
X157751160Y-102902745I-101600J0D01*
G01*
X156687460Y-102902745D01*
G75*
G02*
X156585860Y-102801145I0J101600D01*
G01*
X156585860Y-101739015D01*
G75*
G02*
X156687460Y-101637415I101600J0D01*
G01*
X157751160Y-101637415D01*
G75*
G02*
X157852760Y-101739015I0J-101600D01*
G01*
G37*
G36*
G01*
X156193980Y-101739015D02*
X156193980Y-102801145D01*
G75*
G02*
X156092380Y-102902745I-101600J0D01*
G01*
X155028680Y-102902745D01*
G75*
G02*
X154927080Y-102801145I0J101600D01*
G01*
X154927080Y-101739015D01*
G75*
G02*
X155028680Y-101637415I101600J0D01*
G01*
X156092380Y-101637415D01*
G75*
G02*
X156193980Y-101739015I0J-101600D01*
G01*
G37*
G04 #@! TD*
G04 #@! TO.C,R5*
G36*
G01*
X140263450Y-105628935D02*
X140263450Y-106691065D01*
G75*
G02*
X140161850Y-106792665I-101600J0D01*
G01*
X139098150Y-106792665D01*
G75*
G02*
X138996550Y-106691065I0J101600D01*
G01*
X138996550Y-105628935D01*
G75*
G02*
X139098150Y-105527335I101600J0D01*
G01*
X140161850Y-105527335D01*
G75*
G02*
X140263450Y-105628935I0J-101600D01*
G01*
G37*
G36*
G01*
X138604670Y-105628935D02*
X138604670Y-106691065D01*
G75*
G02*
X138503070Y-106792665I-101600J0D01*
G01*
X137439370Y-106792665D01*
G75*
G02*
X137337770Y-106691065I0J101600D01*
G01*
X137337770Y-105628935D01*
G75*
G02*
X137439370Y-105527335I101600J0D01*
G01*
X138503070Y-105527335D01*
G75*
G02*
X138604670Y-105628935I0J-101600D01*
G01*
G37*
G04 #@! TD*
D11*
G04 #@! TO.C,BL1*
X147434810Y-107586995D03*
X147434810Y-102486995D03*
G04 #@! TD*
M02*
