G04 #@! TF.GenerationSoftware,KiCad,Pcbnew,9.0.4*
G04 #@! TF.CreationDate,2025-10-31T22:35:57+03:00*
G04 #@! TF.ProjectId,ECAD_main,45434144-5f6d-4616-996e-2e6b69636164,rev?*
G04 #@! TF.SameCoordinates,Original*
G04 #@! TF.FileFunction,Copper,L1,Top*
G04 #@! TF.FilePolarity,Positive*
%FSLAX46Y46*%
G04 Gerber Fmt 4.6, Leading zero omitted, Abs format (unit mm)*
G04 Created by KiCad (PCBNEW 9.0.4) date 2025-10-31 22:35:57*
%MOMM*%
%LPD*%
G01*
G04 APERTURE LIST*
G04 #@! TA.AperFunction,SMDPad,CuDef*
%ADD10R,1.063700X1.062130*%
G04 #@! TD*
G04 #@! TA.AperFunction,SMDPad,CuDef*
%ADD11R,2.000000X1.000000*%
G04 #@! TD*
G04 #@! TA.AperFunction,SMDPad,CuDef*
%ADD12R,0.750000X1.700000*%
G04 #@! TD*
G04 #@! TA.AperFunction,SMDPad,CuDef*
%ADD13R,1.274350X0.532130*%
G04 #@! TD*
G04 #@! TA.AperFunction,SMDPad,CuDef*
%ADD14R,1.463950X0.600000*%
G04 #@! TD*
G04 #@! TA.AperFunction,SMDPad,CuDef*
%ADD15R,1.062130X1.063700*%
G04 #@! TD*
G04 #@! TA.AperFunction,ComponentPad*
%ADD16C,1.500000*%
G04 #@! TD*
G04 #@! TA.AperFunction,ViaPad*
%ADD17C,0.600000*%
G04 #@! TD*
G04 #@! TA.AperFunction,Conductor*
%ADD18C,0.300000*%
G04 #@! TD*
G04 #@! TA.AperFunction,Conductor*
%ADD19C,0.277500*%
G04 #@! TD*
G04 APERTURE END LIST*
D10*
G04 #@! TO.P,R10,1,1*
G04 #@! TO.N,OUT*
X146670610Y-105000000D03*
G04 #@! TO.P,R10,2,2*
G04 #@! TO.N,Net-(C2-Pad1)*
X148329390Y-105000000D03*
G04 #@! TD*
G04 #@! TO.P,R8,1,1*
G04 #@! TO.N,Net-(DD1-Pad3)*
X159510610Y-109990000D03*
G04 #@! TO.P,R8,2,2*
G04 #@! TO.N,+5*
X161169390Y-109990000D03*
G04 #@! TD*
D11*
G04 #@! TO.P,,2*
G04 #@! TO.N,IN*
X134780050Y-102013095D03*
G04 #@! TD*
D12*
G04 #@! TO.P,HL1,1,1*
G04 #@! TO.N,Net-(HL1-Pad1)*
X142400000Y-102450000D03*
G04 #@! TO.P,HL1,2,2*
G04 #@! TO.N,Net-(VT1-D)*
X142400000Y-107450000D03*
G04 #@! TD*
D10*
G04 #@! TO.P,C3,1,1*
G04 #@! TO.N,GND*
X157219310Y-107890080D03*
G04 #@! TO.P,C3,2,2*
G04 #@! TO.N,+5*
X155560530Y-107890080D03*
G04 #@! TD*
D11*
G04 #@! TO.P,,2*
G04 #@! TO.N,OUT*
X134780050Y-104013095D03*
G04 #@! TD*
D10*
G04 #@! TO.P,R7,1,1*
G04 #@! TO.N,GND*
X161168780Y-107870000D03*
G04 #@! TO.P,R7,2,2*
G04 #@! TO.N,Net-(DD1-Pad3)*
X159510000Y-107870000D03*
G04 #@! TD*
G04 #@! TO.P,C4,1,1*
G04 #@! TO.N,GND*
X159450690Y-100159920D03*
G04 #@! TO.P,C4,2,2*
G04 #@! TO.N,Net-(C2-Pad1)*
X161109470Y-100159920D03*
G04 #@! TD*
G04 #@! TO.P,R6,1,1*
G04 #@! TO.N,+5*
X157230000Y-110040000D03*
G04 #@! TO.P,R6,2,2*
G04 #@! TO.N,Net-(HL2-Pad1)*
X155571220Y-110040000D03*
G04 #@! TD*
G04 #@! TO.P,R2,1,1*
G04 #@! TO.N,GND*
X139629390Y-103850000D03*
G04 #@! TO.P,R2,2,2*
G04 #@! TO.N,Net-(VT1-G)*
X137970610Y-103850000D03*
G04 #@! TD*
D11*
G04 #@! TO.P,,2*
G04 #@! TO.N,+5*
X134780050Y-106013095D03*
G04 #@! TD*
G04 #@! TO.P,,2*
G04 #@! TO.N,GND*
X134780050Y-108013095D03*
G04 #@! TD*
D10*
G04 #@! TO.P,R4,1,1*
G04 #@! TO.N,IN*
X137970610Y-108440000D03*
G04 #@! TO.P,R4,2,2*
G04 #@! TO.N,Net-(VT2-G)*
X139629390Y-108440000D03*
G04 #@! TD*
D13*
G04 #@! TO.P,VT2,1,G*
G04 #@! TO.N,Net-(VT2-G)*
X144644870Y-108080000D03*
G04 #@! TO.P,VT2,2,S*
G04 #@! TO.N,GND*
G04 #@! TA.AperFunction,SMDPad,CuDef*
G36*
G01*
X144007695Y-109980000D02*
X144007695Y-109980000D01*
G75*
G02*
X144273760Y-109713935I266065J0D01*
G01*
X145015980Y-109713935D01*
G75*
G02*
X145282045Y-109980000I0J-266065D01*
G01*
X145282045Y-109980000D01*
G75*
G02*
X145015980Y-110246065I-266065J0D01*
G01*
X144273760Y-110246065D01*
G75*
G02*
X144007695Y-109980000I0J266065D01*
G01*
G37*
G04 #@! TD.AperFunction*
G04 #@! TO.P,VT2,3,D*
G04 #@! TO.N,Net-(VT2-D)*
G04 #@! TA.AperFunction,SMDPad,CuDef*
G36*
G01*
X145677955Y-109030000D02*
X145677955Y-109030000D01*
G75*
G02*
X145944020Y-108763935I266065J0D01*
G01*
X146686240Y-108763935D01*
G75*
G02*
X146952305Y-109030000I0J-266065D01*
G01*
X146952305Y-109030000D01*
G75*
G02*
X146686240Y-109296065I-266065J0D01*
G01*
X145944020Y-109296065D01*
G75*
G02*
X145677955Y-109030000I0J266065D01*
G01*
G37*
G04 #@! TD.AperFunction*
G04 #@! TD*
G04 #@! TO.P,VT1,1,G*
G04 #@! TO.N,Net-(VT1-G)*
X144619740Y-99860000D03*
G04 #@! TO.P,VT1,2,S*
G04 #@! TO.N,GND*
G04 #@! TA.AperFunction,SMDPad,CuDef*
G36*
G01*
X143982565Y-101760000D02*
X143982565Y-101760000D01*
G75*
G02*
X144248630Y-101493935I266065J0D01*
G01*
X144990850Y-101493935D01*
G75*
G02*
X145256915Y-101760000I0J-266065D01*
G01*
X145256915Y-101760000D01*
G75*
G02*
X144990850Y-102026065I-266065J0D01*
G01*
X144248630Y-102026065D01*
G75*
G02*
X143982565Y-101760000I0J266065D01*
G01*
G37*
G04 #@! TD.AperFunction*
G04 #@! TO.P,VT1,3,D*
G04 #@! TO.N,Net-(VT1-D)*
G04 #@! TA.AperFunction,SMDPad,CuDef*
G36*
G01*
X145652825Y-100810000D02*
X145652825Y-100810000D01*
G75*
G02*
X145918890Y-100543935I266065J0D01*
G01*
X146661110Y-100543935D01*
G75*
G02*
X146927175Y-100810000I0J-266065D01*
G01*
X146927175Y-100810000D01*
G75*
G02*
X146661110Y-101076065I-266065J0D01*
G01*
X145918890Y-101076065D01*
G75*
G02*
X145652825Y-100810000I0J266065D01*
G01*
G37*
G04 #@! TD.AperFunction*
G04 #@! TD*
D10*
G04 #@! TO.P,R9,1,1*
G04 #@! TO.N,Net-(C2-Pad1)*
X161119390Y-102220000D03*
G04 #@! TO.P,R9,2,2*
G04 #@! TO.N,Net-(BL1-Pad2)*
X159460610Y-102220000D03*
G04 #@! TD*
D14*
G04 #@! TO.P,DD1,1,1*
G04 #@! TO.N,Net-(C2-Pad1)*
X155907130Y-104168685D03*
G04 #@! TO.P,DD1,2,-U*
G04 #@! TO.N,GND*
G04 #@! TA.AperFunction,SMDPad,CuDef*
G36*
G01*
X155175155Y-105070955D02*
X155175155Y-105070955D01*
G75*
G02*
X155475155Y-104770955I300000J0D01*
G01*
X156339105Y-104770955D01*
G75*
G02*
X156639105Y-105070955I0J-300000D01*
G01*
X156639105Y-105070955D01*
G75*
G02*
X156339105Y-105370955I-300000J0D01*
G01*
X155475155Y-105370955D01*
G75*
G02*
X155175155Y-105070955I0J300000D01*
G01*
G37*
G04 #@! TD.AperFunction*
G04 #@! TO.P,DD1,3,3*
G04 #@! TO.N,Net-(DD1-Pad3)*
G04 #@! TA.AperFunction,SMDPad,CuDef*
G36*
G01*
X155175155Y-105973235D02*
X155175155Y-105973235D01*
G75*
G02*
X155475155Y-105673235I300000J0D01*
G01*
X156339105Y-105673235D01*
G75*
G02*
X156639105Y-105973235I0J-300000D01*
G01*
X156639105Y-105973235D01*
G75*
G02*
X156339105Y-106273235I-300000J0D01*
G01*
X155475155Y-106273235D01*
G75*
G02*
X155175155Y-105973235I0J300000D01*
G01*
G37*
G04 #@! TD.AperFunction*
G04 #@! TO.P,DD1,4,4*
G04 #@! TO.N,Net-(BL1-Pad2)*
G04 #@! TA.AperFunction,SMDPad,CuDef*
G36*
G01*
X157226065Y-105985385D02*
X157226065Y-105985385D01*
G75*
G02*
X157526065Y-105685385I300000J0D01*
G01*
X158390015Y-105685385D01*
G75*
G02*
X158690015Y-105985385I0J-300000D01*
G01*
X158690015Y-105985385D01*
G75*
G02*
X158390015Y-106285385I-300000J0D01*
G01*
X157526065Y-106285385D01*
G75*
G02*
X157226065Y-105985385I0J300000D01*
G01*
G37*
G04 #@! TD.AperFunction*
G04 #@! TO.P,DD1,5,+U*
G04 #@! TO.N,+5*
G04 #@! TA.AperFunction,SMDPad,CuDef*
G36*
G01*
X157226065Y-104140545D02*
X157226065Y-104140545D01*
G75*
G02*
X157526065Y-103840545I300000J0D01*
G01*
X158390015Y-103840545D01*
G75*
G02*
X158690015Y-104140545I0J-300000D01*
G01*
X158690015Y-104140545D01*
G75*
G02*
X158390015Y-104440545I-300000J0D01*
G01*
X157526065Y-104440545D01*
G75*
G02*
X157226065Y-104140545I0J300000D01*
G01*
G37*
G04 #@! TD.AperFunction*
G04 #@! TD*
D12*
G04 #@! TO.P,HL2,1,1*
G04 #@! TO.N,Net-(HL2-Pad1)*
X152400000Y-102600000D03*
G04 #@! TO.P,HL2,2,2*
G04 #@! TO.N,Net-(VT2-D)*
X152400000Y-107600000D03*
G04 #@! TD*
D10*
G04 #@! TO.P,R1,1,1*
G04 #@! TO.N,IN*
X138000000Y-101500000D03*
G04 #@! TO.P,R1,2,2*
G04 #@! TO.N,Net-(VT1-G)*
X139658780Y-101500000D03*
G04 #@! TD*
G04 #@! TO.P,R3,1,1*
G04 #@! TO.N,Net-(HL1-Pad1)*
X155580610Y-100170000D03*
G04 #@! TO.P,R3,2,2*
G04 #@! TO.N,+5*
X157239390Y-100170000D03*
G04 #@! TD*
D15*
G04 #@! TO.P,C2,1,1*
G04 #@! TO.N,Net-(C2-Pad1)*
X161062200Y-104217065D03*
G04 #@! TO.P,C2,2,2*
G04 #@! TO.N,Net-(BL1-Pad2)*
X161062200Y-105875845D03*
G04 #@! TD*
D10*
G04 #@! TO.P,C1,1,1*
G04 #@! TO.N,GND*
X157219310Y-102270080D03*
G04 #@! TO.P,C1,2,2*
G04 #@! TO.N,+5*
X155560530Y-102270080D03*
G04 #@! TD*
G04 #@! TO.P,R5,1,1*
G04 #@! TO.N,GND*
X139630000Y-106160000D03*
G04 #@! TO.P,R5,2,2*
G04 #@! TO.N,Net-(VT2-G)*
X137971220Y-106160000D03*
G04 #@! TD*
D16*
G04 #@! TO.P,BL1,1,1*
G04 #@! TO.N,GND*
X147434810Y-107586995D03*
G04 #@! TO.P,BL1,2,2*
G04 #@! TO.N,Net-(BL1-Pad2)*
X147434810Y-102486995D03*
G04 #@! TD*
D17*
G04 #@! TO.N,Net-(BL1-Pad2)*
X159499830Y-101325025D03*
G04 #@! TO.N,OUT*
X145501100Y-104934995D03*
X136280050Y-104013095D03*
G04 #@! TO.N,Net-(C2-Pad1)*
X161147280Y-101275025D03*
X154751100Y-103778425D03*
G04 #@! TO.N,GND*
X139649740Y-102915045D03*
X139650000Y-107100000D03*
X157464720Y-105065685D03*
X162079130Y-107866385D03*
X143251100Y-110007745D03*
X143501100Y-101726305D03*
G04 #@! TO.N,+5*
X136280050Y-106013095D03*
X154251100Y-107861625D03*
X159063380Y-104143255D03*
X157250000Y-108950000D03*
X162079130Y-109977545D03*
X157273500Y-101025165D03*
X155559420Y-103187155D03*
G04 #@! TD*
D18*
G04 #@! TO.N,Net-(BL1-Pad2)*
X159499750Y-102256095D02*
X159783390Y-102256095D01*
X157965270Y-105992605D02*
X160945440Y-105992605D01*
X159904370Y-105875845D02*
X159904370Y-102256095D01*
X159499830Y-102256015D02*
X159499830Y-101325025D01*
X159499750Y-102256095D02*
X159499830Y-102256015D01*
X160945440Y-105992605D02*
X161062200Y-105875845D01*
X157958040Y-105985385D02*
X157965270Y-105992605D01*
G04 #@! TO.N,OUT*
X145501100Y-104934995D02*
X146421710Y-104934995D01*
X135680050Y-104013095D02*
X136280050Y-104013095D01*
G04 #@! TO.N,Net-(C2-Pad1)*
X161170060Y-104109205D02*
X161170060Y-102267635D01*
X155142300Y-103835825D02*
X155475150Y-104168675D01*
X154808500Y-103835825D02*
X155142300Y-103835825D01*
X161147280Y-101275025D02*
X161147280Y-100181685D01*
X161158520Y-102256095D02*
X161170060Y-102267635D01*
X151779270Y-101236995D02*
X152996200Y-101236995D01*
X148081270Y-104934995D02*
X151779270Y-101236995D01*
X161062200Y-104217065D02*
X161170060Y-104109205D01*
X155475150Y-104168675D02*
X155907130Y-104168675D01*
X152996200Y-101236995D02*
X153659440Y-101900235D01*
X153659440Y-102686765D02*
X153659440Y-101900235D01*
X153659440Y-102686765D02*
X154808500Y-103835825D01*
X148080490Y-104934995D02*
X148081270Y-104934995D01*
X161147280Y-102021695D02*
X161147280Y-101275025D01*
X161147280Y-100181685D02*
X161158600Y-100170375D01*
G04 #@! TO.N,Net-(DD1-Pad3)*
X159500530Y-107866385D02*
X159881600Y-108247455D01*
X159499750Y-109977625D02*
X159500530Y-109977625D01*
X159498960Y-107866385D02*
X159499750Y-107866385D01*
X158515510Y-106882945D02*
X159498960Y-107866385D01*
X157248820Y-106882945D02*
X158515510Y-106882945D01*
X159500530Y-109977625D02*
X159881600Y-109596555D01*
X159881600Y-109596555D02*
X159881600Y-108247455D01*
X155907130Y-105973235D02*
X156339110Y-105973235D01*
X156339110Y-105973235D02*
X157248820Y-106882945D01*
G04 #@! TO.N,Net-(HL1-Pad1)*
X151959000Y-100208745D02*
X152400000Y-100208745D01*
X145846280Y-103686985D02*
X148480750Y-103686985D01*
X152400000Y-100208745D02*
X155602430Y-100208745D01*
X145294280Y-103134995D02*
X145846280Y-103686985D01*
X142659810Y-103134995D02*
X145294280Y-103134995D01*
X142434810Y-102909995D02*
X142434810Y-102434995D01*
X148480750Y-103686985D02*
X151959000Y-100208745D01*
X142434810Y-102909995D02*
X142659810Y-103134995D01*
G04 #@! TO.N,Net-(VT1-D)*
X142009810Y-106534995D02*
X142434810Y-106959995D01*
X141772070Y-106534995D02*
X142009810Y-106534995D01*
X140834810Y-102173595D02*
X142232100Y-100776305D01*
X140834810Y-105597735D02*
X141772070Y-106534995D01*
X142434810Y-107434995D02*
X142434810Y-106959995D01*
X140834810Y-105597735D02*
X140834810Y-102173595D01*
X142232100Y-100776305D02*
X146344940Y-100776305D01*
G04 #@! TO.N,Net-(VT2-D)*
X148756170Y-109057745D02*
X150276920Y-107536995D01*
X146344940Y-109057745D02*
X148756170Y-109057745D01*
X150276920Y-107536995D02*
X152434810Y-107536995D01*
G04 #@! TO.N,Net-(HL2-Pad1)*
X153501100Y-106540115D02*
X154034810Y-106006415D01*
X152859800Y-103436995D02*
X153097550Y-103436995D01*
X152434810Y-103011995D02*
X152859800Y-103436995D01*
X154028310Y-108699485D02*
X154280580Y-108699485D01*
X153501100Y-108172285D02*
X153501100Y-106540115D01*
X153501100Y-108172285D02*
X154028310Y-108699485D01*
X153097550Y-103436995D02*
X154034810Y-104374255D01*
X154034810Y-106006415D02*
X154034810Y-104374255D01*
X152434810Y-103011995D02*
X152434810Y-102536995D01*
X154280580Y-108699485D02*
X155558630Y-109977545D01*
X155558630Y-109977545D02*
X155559420Y-109977545D01*
G04 #@! TO.N,Net-(VT1-G)*
X138972030Y-102206125D02*
X139648170Y-101529975D01*
X140629900Y-101529975D02*
X142333580Y-99826305D01*
X138372040Y-103465045D02*
X138372040Y-102847435D01*
X138972030Y-102247435D02*
X138972030Y-102206125D01*
X142333580Y-99826305D02*
X144674680Y-99826305D01*
X137990970Y-103846105D02*
X138372040Y-103465045D01*
X137990180Y-103846105D02*
X137990970Y-103846105D01*
X138372040Y-102847435D02*
X138972030Y-102247435D01*
X139648170Y-101529975D02*
X140629900Y-101529975D01*
G04 #@! TO.N,IN*
X137018800Y-107586385D02*
X137018800Y-106908185D01*
X135280050Y-102013095D02*
X136540910Y-103273955D01*
X137018800Y-107586385D02*
X137989400Y-108556975D01*
X134780050Y-102013095D02*
X135280050Y-102013095D01*
X137989400Y-108556975D02*
X137990180Y-108556975D01*
X136540910Y-103273955D02*
X136586210Y-103273955D01*
X135630050Y-101663095D02*
X136552640Y-101663095D01*
D19*
X136586210Y-103273955D02*
X137018800Y-103706545D01*
D18*
X136685750Y-101529975D02*
X137990180Y-101529975D01*
X136552640Y-101663095D02*
X136685750Y-101529975D01*
X135280050Y-102013095D02*
X135630050Y-101663095D01*
D19*
X137018800Y-106908185D02*
X137018800Y-103706545D01*
D18*
G04 #@! TO.N,GND*
X155907130Y-105070955D02*
X155175156Y-105070955D01*
X139648960Y-103846105D02*
X139649740Y-103845325D01*
X155953465Y-106624235D02*
X157219310Y-107890080D01*
X157794380Y-101875025D02*
X159499040Y-100170375D01*
X155175156Y-105070955D02*
X154824155Y-105421956D01*
X139648170Y-106179465D02*
X139649740Y-106181035D01*
X154824155Y-105421956D02*
X154824155Y-106242889D01*
X155909770Y-105068315D02*
X157462080Y-105068315D01*
X154824155Y-106242889D02*
X155205501Y-106624235D01*
X139650000Y-106169720D02*
X139650000Y-107100000D01*
X157215810Y-107866385D02*
X157218190Y-107864005D01*
X157261990Y-102256095D02*
X157643050Y-101875025D01*
X155205501Y-106624235D02*
X155953465Y-106624235D01*
X143251100Y-110007745D02*
X144674680Y-110007745D01*
X157643050Y-101875025D02*
X157794380Y-101875025D01*
X157462080Y-105068315D02*
X157464720Y-105065685D01*
X157284960Y-103187155D02*
X157284960Y-102279855D01*
X155907130Y-105070955D02*
X155909770Y-105068315D01*
X159499040Y-100170375D02*
X159499830Y-100170375D01*
X139649740Y-103845325D02*
X139649740Y-102915045D01*
X161158520Y-107866385D02*
X162079130Y-107866385D01*
X157261200Y-102256095D02*
X157261990Y-102256095D01*
X143501100Y-101726305D02*
X144674680Y-101726305D01*
G04 #@! TO.N,+5*
X157261200Y-100208745D02*
X157273500Y-100221045D01*
X154251100Y-107861625D02*
X155513460Y-107861625D01*
X155559420Y-102299105D02*
X155602430Y-102256095D01*
X155559420Y-103187155D02*
X155559420Y-102299105D01*
X157273500Y-101025165D02*
X157273500Y-100221045D01*
X158384460Y-104168675D02*
X159037950Y-104168675D01*
X161158600Y-109977545D02*
X162079130Y-109977545D01*
X157250000Y-109047940D02*
X157250000Y-109852060D01*
X157218190Y-109977625D02*
X157359730Y-109836085D01*
X161158520Y-109977625D02*
X161158600Y-109977545D01*
X135680050Y-106013095D02*
X136280050Y-106013095D01*
G04 #@! TO.N,Net-(VT2-G)*
X137989400Y-106179465D02*
X137990180Y-106179465D01*
X138972030Y-107880835D02*
X138972030Y-107761315D01*
X137990180Y-106179465D02*
X138371250Y-106560535D01*
X138972030Y-107880835D02*
X139826190Y-108734995D01*
X138371250Y-107160535D02*
X138972030Y-107761315D01*
X138371250Y-107160535D02*
X138371250Y-106560535D01*
X139826190Y-108734995D02*
X142996200Y-108734995D01*
X142996200Y-108734995D02*
X143618970Y-108112225D01*
X144670200Y-108112225D02*
X144674680Y-108107745D01*
X143618970Y-108112225D02*
X144670200Y-108112225D01*
G04 #@! TD*
G04 #@! TA.AperFunction,Conductor*
G04 #@! TO.N,GND*
G36*
X163193639Y-98523780D02*
G01*
X163239394Y-98576584D01*
X163250600Y-98628095D01*
X163250600Y-111379095D01*
X163230915Y-111446134D01*
X163178111Y-111491889D01*
X163126600Y-111503095D01*
X133875600Y-111503103D01*
X133808561Y-111483418D01*
X133762806Y-111430614D01*
X133751600Y-111379103D01*
X133751600Y-107137594D01*
X133771285Y-107070555D01*
X133824089Y-107024800D01*
X133875600Y-107013594D01*
X135827921Y-107013594D01*
X135827922Y-107013594D01*
X135887533Y-107007186D01*
X136022381Y-106956891D01*
X136137596Y-106870641D01*
X136143104Y-106863282D01*
X136146759Y-106860546D01*
X136148657Y-106856392D01*
X136174474Y-106839800D01*
X136199038Y-106821413D01*
X136204665Y-106820397D01*
X136207435Y-106818618D01*
X136242370Y-106813595D01*
X136244300Y-106813595D01*
X136311339Y-106833280D01*
X136357094Y-106886084D01*
X136368300Y-106937595D01*
X136368300Y-107650455D01*
X136371513Y-107666606D01*
X136391297Y-107766062D01*
X136391297Y-107766063D01*
X136391298Y-107766065D01*
X136393300Y-107776131D01*
X136393300Y-107776132D01*
X136442334Y-107894512D01*
X136442335Y-107894514D01*
X136442336Y-107894515D01*
X136513526Y-108001057D01*
X136892945Y-108380472D01*
X136901941Y-108389468D01*
X136935426Y-108450791D01*
X136938260Y-108477150D01*
X136938260Y-109018935D01*
X136938261Y-109018941D01*
X136944668Y-109078548D01*
X136994962Y-109213393D01*
X136994966Y-109213400D01*
X137081212Y-109328609D01*
X137081215Y-109328612D01*
X137196424Y-109414858D01*
X137196431Y-109414862D01*
X137331277Y-109465156D01*
X137331276Y-109465156D01*
X137338204Y-109465900D01*
X137390887Y-109471565D01*
X138550332Y-109471564D01*
X138609943Y-109465156D01*
X138620917Y-109461063D01*
X138753101Y-109411762D01*
X138754025Y-109414240D01*
X138808824Y-109402310D01*
X138846318Y-109413319D01*
X138846899Y-109411762D01*
X138990057Y-109465156D01*
X138990056Y-109465156D01*
X138996984Y-109465900D01*
X139049667Y-109471565D01*
X140209112Y-109471564D01*
X140268723Y-109465156D01*
X140403571Y-109414861D01*
X140407711Y-109411762D01*
X140409761Y-109410228D01*
X140475225Y-109385811D01*
X140484071Y-109385495D01*
X143060271Y-109385495D01*
X143144815Y-109368677D01*
X143185944Y-109360496D01*
X143304327Y-109311460D01*
X143410869Y-109240272D01*
X143779143Y-108871996D01*
X143786287Y-108868095D01*
X143791072Y-108861506D01*
X143816504Y-108851595D01*
X143840462Y-108838514D01*
X143850259Y-108838442D01*
X143856174Y-108836138D01*
X143884283Y-108838194D01*
X143891411Y-108838143D01*
X143898850Y-108839648D01*
X143900212Y-108840156D01*
X143902662Y-108840419D01*
X143908290Y-108841558D01*
X143934315Y-108855280D01*
X143961505Y-108866542D01*
X143964872Y-108871391D01*
X143970094Y-108874145D01*
X143984569Y-108899759D01*
X144001354Y-108923934D01*
X144002609Y-108931684D01*
X144004469Y-108934974D01*
X144004124Y-108941030D01*
X144007700Y-108963095D01*
X144007700Y-109713930D01*
X145557483Y-109713930D01*
X145610167Y-109728871D01*
X145611309Y-109726424D01*
X145617852Y-109729475D01*
X145661817Y-109744043D01*
X145787952Y-109785839D01*
X145892937Y-109796565D01*
X145892941Y-109796565D01*
X146737319Y-109796565D01*
X146737323Y-109796565D01*
X146842308Y-109785839D01*
X147012410Y-109729474D01*
X147013388Y-109728871D01*
X147016894Y-109726709D01*
X147081994Y-109708245D01*
X148820241Y-109708245D01*
X148904785Y-109691427D01*
X148945914Y-109683246D01*
X149064297Y-109634210D01*
X149114748Y-109600500D01*
X149170839Y-109563022D01*
X150510047Y-108223814D01*
X150571370Y-108190329D01*
X150597728Y-108187495D01*
X151400501Y-108187495D01*
X151467540Y-108207180D01*
X151513295Y-108259984D01*
X151524501Y-108311495D01*
X151524501Y-108497876D01*
X151530908Y-108557483D01*
X151581202Y-108692328D01*
X151581206Y-108692335D01*
X151667452Y-108807544D01*
X151667455Y-108807547D01*
X151782664Y-108893793D01*
X151782671Y-108893797D01*
X151917517Y-108944091D01*
X151917516Y-108944091D01*
X151924444Y-108944835D01*
X151977127Y-108950500D01*
X152822872Y-108950499D01*
X152882483Y-108944091D01*
X153017331Y-108893796D01*
X153094497Y-108836029D01*
X153159959Y-108811612D01*
X153228232Y-108826463D01*
X153256483Y-108847610D01*
X153613645Y-109204765D01*
X153677588Y-109247489D01*
X153717383Y-109274079D01*
X153720766Y-109276475D01*
X153725779Y-109278269D01*
X153765739Y-109294819D01*
X153838566Y-109324986D01*
X153838568Y-109324986D01*
X153838570Y-109324987D01*
X153964238Y-109349985D01*
X153970301Y-109350582D01*
X153970062Y-109353007D01*
X154026809Y-109369670D01*
X154047450Y-109386302D01*
X154502552Y-109841408D01*
X154536036Y-109902730D01*
X154538870Y-109929088D01*
X154538870Y-110618935D01*
X154538871Y-110618941D01*
X154545278Y-110678548D01*
X154595572Y-110813393D01*
X154595576Y-110813400D01*
X154681822Y-110928609D01*
X154681825Y-110928612D01*
X154797034Y-111014858D01*
X154797041Y-111014862D01*
X154931887Y-111065156D01*
X154931886Y-111065156D01*
X154938814Y-111065900D01*
X154991497Y-111071565D01*
X156150942Y-111071564D01*
X156210553Y-111065156D01*
X156353711Y-111011762D01*
X156354635Y-111014240D01*
X156409434Y-111002310D01*
X156446928Y-111013319D01*
X156447509Y-111011762D01*
X156590667Y-111065156D01*
X156590666Y-111065156D01*
X156597594Y-111065900D01*
X156650277Y-111071565D01*
X157809722Y-111071564D01*
X157869333Y-111065156D01*
X158004181Y-111014861D01*
X158119396Y-110928611D01*
X158205646Y-110813396D01*
X158255941Y-110678548D01*
X158255941Y-110678546D01*
X158257724Y-110671003D01*
X158260894Y-110671752D01*
X158281848Y-110621002D01*
X158339195Y-110581088D01*
X158409017Y-110578515D01*
X158469146Y-110614099D01*
X158494670Y-110655364D01*
X158534963Y-110763395D01*
X158534966Y-110763400D01*
X158621212Y-110878609D01*
X158621215Y-110878612D01*
X158736424Y-110964858D01*
X158736431Y-110964862D01*
X158871277Y-111015156D01*
X158871276Y-111015156D01*
X158878204Y-111015900D01*
X158930887Y-111021565D01*
X160090332Y-111021564D01*
X160149943Y-111015156D01*
X160261546Y-110973531D01*
X160293101Y-110961762D01*
X160294025Y-110964240D01*
X160348824Y-110952310D01*
X160386318Y-110963319D01*
X160386899Y-110961762D01*
X160530057Y-111015156D01*
X160530056Y-111015156D01*
X160536984Y-111015900D01*
X160589667Y-111021565D01*
X161749112Y-111021564D01*
X161808723Y-111015156D01*
X161943571Y-110964861D01*
X162058786Y-110878611D01*
X162101413Y-110821669D01*
X162157346Y-110779797D01*
X162176489Y-110774362D01*
X162231622Y-110763395D01*
X162312627Y-110747282D01*
X162458309Y-110686939D01*
X162589419Y-110599334D01*
X162700919Y-110487834D01*
X162788524Y-110356724D01*
X162848867Y-110211042D01*
X162879630Y-110056387D01*
X162879630Y-109898703D01*
X162879630Y-109898700D01*
X162879629Y-109898698D01*
X162857180Y-109785839D01*
X162848867Y-109744048D01*
X162803371Y-109634210D01*
X162788527Y-109598372D01*
X162788520Y-109598359D01*
X162700919Y-109467256D01*
X162700916Y-109467252D01*
X162589422Y-109355758D01*
X162589418Y-109355755D01*
X162458315Y-109268154D01*
X162458302Y-109268147D01*
X162312631Y-109207809D01*
X162312621Y-109207806D01*
X162154577Y-109176369D01*
X162092666Y-109143984D01*
X162079506Y-109129068D01*
X162058786Y-109101389D01*
X162031392Y-109080882D01*
X161943575Y-109015141D01*
X161943568Y-109015137D01*
X161808722Y-108964843D01*
X161808723Y-108964843D01*
X161749123Y-108958436D01*
X161749121Y-108958435D01*
X161749113Y-108958435D01*
X161749105Y-108958435D01*
X160656100Y-108958435D01*
X160589061Y-108938750D01*
X160543306Y-108885946D01*
X160532100Y-108834435D01*
X160532100Y-108539252D01*
X160534414Y-108515407D01*
X160535555Y-108509581D01*
X160535941Y-108508548D01*
X160536163Y-108506479D01*
X160537193Y-108501225D01*
X160550928Y-108474784D01*
X160562328Y-108447264D01*
X160566858Y-108444118D01*
X160569402Y-108439222D01*
X160595253Y-108424403D01*
X160619720Y-108407416D01*
X160626925Y-108406248D01*
X160630019Y-108404475D01*
X160633355Y-108404644D01*
X160636930Y-108401070D01*
X160636930Y-107338930D01*
X160627805Y-107329805D01*
X160591841Y-107319245D01*
X160546086Y-107266441D01*
X160542484Y-107257685D01*
X160537220Y-107243356D01*
X160535941Y-107231452D01*
X160485646Y-107096604D01*
X160481070Y-107090491D01*
X160475361Y-107074949D01*
X160473626Y-107048878D01*
X160468073Y-107023353D01*
X160471344Y-107014579D01*
X160470723Y-107005233D01*
X160483360Y-106982361D01*
X160492487Y-106957888D01*
X160499982Y-106952276D01*
X160504513Y-106944077D01*
X160527508Y-106931668D01*
X160548419Y-106916014D01*
X160560591Y-106913817D01*
X160566002Y-106910898D01*
X160573564Y-106911476D01*
X160591751Y-106908194D01*
X161641137Y-106908194D01*
X161700748Y-106901786D01*
X161835596Y-106851491D01*
X161950811Y-106765241D01*
X162037061Y-106650026D01*
X162087356Y-106515178D01*
X162093765Y-106455568D01*
X162093764Y-105296123D01*
X162087356Y-105236512D01*
X162079968Y-105216704D01*
X162033962Y-105093354D01*
X162036440Y-105092429D01*
X162024510Y-105037631D01*
X162035519Y-105000136D01*
X162033962Y-104999556D01*
X162076762Y-104884801D01*
X162087356Y-104856398D01*
X162093765Y-104796788D01*
X162093764Y-103637343D01*
X162087356Y-103577732D01*
X162068222Y-103526432D01*
X162037062Y-103442886D01*
X162037058Y-103442879D01*
X161945497Y-103320570D01*
X161946753Y-103319629D01*
X161918058Y-103267078D01*
X161923042Y-103197386D01*
X161964912Y-103141454D01*
X162008786Y-103108611D01*
X162095036Y-102993396D01*
X162145331Y-102858548D01*
X162151740Y-102798938D01*
X162151739Y-101641063D01*
X162145331Y-101581452D01*
X162143508Y-101576565D01*
X162095037Y-101446606D01*
X162095033Y-101446599D01*
X162008787Y-101331390D01*
X162004408Y-101328112D01*
X161997464Y-101322913D01*
X161977052Y-101295644D01*
X161956259Y-101268716D01*
X161956045Y-101267578D01*
X161955596Y-101266979D01*
X161948242Y-101234345D01*
X161947780Y-101229008D01*
X161947780Y-101196183D01*
X161942748Y-101170889D01*
X161942160Y-101164090D01*
X161947777Y-101136268D01*
X161950307Y-101107997D01*
X161954631Y-101102327D01*
X161955989Y-101095602D01*
X161973592Y-101077463D01*
X161991390Y-101054127D01*
X161998866Y-101048531D01*
X162085116Y-100933316D01*
X162135411Y-100798468D01*
X162141820Y-100738858D01*
X162141819Y-99580983D01*
X162135411Y-99521372D01*
X162122386Y-99486451D01*
X162085117Y-99386526D01*
X162085113Y-99386519D01*
X161998867Y-99271310D01*
X161998864Y-99271307D01*
X161883655Y-99185061D01*
X161883648Y-99185057D01*
X161748802Y-99134763D01*
X161748803Y-99134763D01*
X161689203Y-99128356D01*
X161689201Y-99128355D01*
X161689193Y-99128355D01*
X161689184Y-99128355D01*
X160529749Y-99128355D01*
X160529743Y-99128356D01*
X160470136Y-99134763D01*
X160335291Y-99185057D01*
X160335284Y-99185061D01*
X160220075Y-99271307D01*
X160220072Y-99271310D01*
X160133826Y-99386519D01*
X160133822Y-99386526D01*
X160083528Y-99521372D01*
X160081746Y-99528917D01*
X160079611Y-99528412D01*
X160057142Y-99582656D01*
X159999750Y-99622504D01*
X159986796Y-99624603D01*
X159982550Y-99628850D01*
X159982550Y-100472940D01*
X159962865Y-100539979D01*
X159910061Y-100585734D01*
X159840903Y-100595678D01*
X159811098Y-100587501D01*
X159733331Y-100555289D01*
X159733319Y-100555286D01*
X159578675Y-100524525D01*
X159578672Y-100524525D01*
X159420988Y-100524525D01*
X159420985Y-100524525D01*
X159266340Y-100555286D01*
X159266328Y-100555289D01*
X159120657Y-100615627D01*
X159120644Y-100615634D01*
X158989541Y-100703235D01*
X158989537Y-100703238D01*
X158878043Y-100814732D01*
X158878040Y-100814736D01*
X158790439Y-100945839D01*
X158790432Y-100945852D01*
X158730094Y-101091523D01*
X158730091Y-101091533D01*
X158711100Y-101187009D01*
X158678715Y-101248920D01*
X158663797Y-101262081D01*
X158571214Y-101331389D01*
X158571213Y-101331390D01*
X158571212Y-101331391D01*
X158484966Y-101446599D01*
X158484962Y-101446606D01*
X158434668Y-101581452D01*
X158428261Y-101641051D01*
X158428261Y-101641058D01*
X158428260Y-101641070D01*
X158428260Y-102798935D01*
X158428261Y-102798941D01*
X158434668Y-102858548D01*
X158484962Y-102993393D01*
X158484966Y-102993400D01*
X158571211Y-103108608D01*
X158571212Y-103108609D01*
X158571214Y-103108611D01*
X158593797Y-103125517D01*
X158635667Y-103181449D01*
X158640651Y-103251140D01*
X158607166Y-103312463D01*
X158545843Y-103345948D01*
X158505603Y-103348002D01*
X158434977Y-103340045D01*
X158434969Y-103340045D01*
X157481111Y-103340045D01*
X157481104Y-103340045D01*
X157346815Y-103355175D01*
X157346810Y-103355176D01*
X157176538Y-103414757D01*
X157080852Y-103474882D01*
X157013616Y-103493883D01*
X156946781Y-103473516D01*
X156940569Y-103469156D01*
X156881436Y-103424889D01*
X156881434Y-103424888D01*
X156881433Y-103424887D01*
X156746587Y-103374593D01*
X156746588Y-103374593D01*
X156686988Y-103368186D01*
X156686986Y-103368185D01*
X156686978Y-103368185D01*
X156686970Y-103368185D01*
X156539795Y-103368185D01*
X156472756Y-103348500D01*
X156427001Y-103295696D01*
X156417057Y-103226538D01*
X156444751Y-103165895D01*
X156444611Y-103165791D01*
X156445093Y-103165146D01*
X156446082Y-103162982D01*
X156449304Y-103159520D01*
X156449922Y-103158693D01*
X156449926Y-103158691D01*
X156536176Y-103043476D01*
X156586471Y-102908628D01*
X156586471Y-102908626D01*
X156588254Y-102901083D01*
X156590388Y-102901587D01*
X156612858Y-102847344D01*
X156670250Y-102807496D01*
X156683203Y-102805396D01*
X156687450Y-102801150D01*
X156687450Y-101828320D01*
X156707135Y-101761281D01*
X156759939Y-101715526D01*
X156829097Y-101705582D01*
X156880342Y-101725218D01*
X156894321Y-101734559D01*
X156894323Y-101734559D01*
X156894327Y-101734562D01*
X156988215Y-101773451D01*
X157040003Y-101794902D01*
X157194653Y-101825664D01*
X157194656Y-101825665D01*
X157194658Y-101825665D01*
X157352344Y-101825665D01*
X157352345Y-101825664D01*
X157506997Y-101794902D01*
X157652679Y-101734559D01*
X157783789Y-101646954D01*
X157895289Y-101535454D01*
X157982894Y-101404344D01*
X158043237Y-101258662D01*
X158065755Y-101145458D01*
X158098140Y-101083547D01*
X158113064Y-101070380D01*
X158128786Y-101058611D01*
X158215036Y-100943396D01*
X158265331Y-100808548D01*
X158271740Y-100748938D01*
X158271739Y-99591063D01*
X158265331Y-99531452D01*
X158264197Y-99528412D01*
X158215037Y-99396606D01*
X158215033Y-99396599D01*
X158128787Y-99281390D01*
X158128784Y-99281387D01*
X158013575Y-99195141D01*
X158013568Y-99195137D01*
X157878722Y-99144843D01*
X157878723Y-99144843D01*
X157819123Y-99138436D01*
X157819121Y-99138435D01*
X157819113Y-99138435D01*
X157819104Y-99138435D01*
X156659669Y-99138435D01*
X156659663Y-99138436D01*
X156600056Y-99144843D01*
X156456899Y-99198238D01*
X156455975Y-99195762D01*
X156401149Y-99207687D01*
X156363680Y-99196685D01*
X156363101Y-99198238D01*
X156219942Y-99144843D01*
X156219943Y-99144843D01*
X156160343Y-99138436D01*
X156160341Y-99138435D01*
X156160333Y-99138435D01*
X156160324Y-99138435D01*
X155000889Y-99138435D01*
X155000883Y-99138436D01*
X154941276Y-99144843D01*
X154806431Y-99195137D01*
X154806424Y-99195141D01*
X154691215Y-99281387D01*
X154691212Y-99281390D01*
X154604966Y-99396599D01*
X154604961Y-99396608D01*
X154574763Y-99477577D01*
X154532893Y-99533511D01*
X154467429Y-99557929D01*
X154458581Y-99558245D01*
X151894929Y-99558245D01*
X151769261Y-99583242D01*
X151769251Y-99583245D01*
X151720220Y-99603555D01*
X151650881Y-99632275D01*
X151650863Y-99632285D01*
X151544332Y-99703466D01*
X151544325Y-99703472D01*
X148881171Y-102366618D01*
X148819848Y-102400103D01*
X148750156Y-102395119D01*
X148694223Y-102353247D01*
X148671017Y-102298334D01*
X148654519Y-102194169D01*
X148654519Y-102194168D01*
X148593692Y-102006965D01*
X148546553Y-101914450D01*
X148504334Y-101831590D01*
X148388638Y-101672349D01*
X148249456Y-101533167D01*
X148090215Y-101417471D01*
X147914839Y-101328112D01*
X147727636Y-101267285D01*
X147533232Y-101236495D01*
X147533227Y-101236495D01*
X147499059Y-101236495D01*
X147432020Y-101216810D01*
X147386265Y-101164006D01*
X147376321Y-101094848D01*
X147381353Y-101073491D01*
X147386285Y-101058609D01*
X147416949Y-100966068D01*
X147427675Y-100861083D01*
X147427675Y-100758917D01*
X147416949Y-100653932D01*
X147360584Y-100483830D01*
X147360580Y-100483824D01*
X147360579Y-100483821D01*
X147266511Y-100331315D01*
X147266508Y-100331311D01*
X147139798Y-100204601D01*
X147139794Y-100204598D01*
X146987288Y-100110530D01*
X146987282Y-100110527D01*
X146987280Y-100110526D01*
X146987277Y-100110525D01*
X146817178Y-100054160D01*
X146712200Y-100043435D01*
X146712193Y-100043435D01*
X145881414Y-100043435D01*
X145814375Y-100023750D01*
X145768620Y-99970946D01*
X145757414Y-99919435D01*
X145757414Y-99546064D01*
X145757413Y-99546058D01*
X145756064Y-99533511D01*
X145751006Y-99486452D01*
X145717496Y-99396608D01*
X145700712Y-99351606D01*
X145700708Y-99351599D01*
X145614462Y-99236390D01*
X145614459Y-99236387D01*
X145499250Y-99150141D01*
X145499243Y-99150137D01*
X145364397Y-99099843D01*
X145364398Y-99099843D01*
X145304798Y-99093436D01*
X145304796Y-99093435D01*
X145304788Y-99093435D01*
X145304779Y-99093435D01*
X143934694Y-99093435D01*
X143934688Y-99093436D01*
X143875081Y-99099843D01*
X143740237Y-99150137D01*
X143740234Y-99150138D01*
X143740234Y-99150139D01*
X143738986Y-99151072D01*
X143737528Y-99151616D01*
X143732456Y-99154387D01*
X143732057Y-99153657D01*
X143673524Y-99175489D01*
X143664678Y-99175805D01*
X142269509Y-99175805D01*
X142143841Y-99200802D01*
X142143835Y-99200804D01*
X142060124Y-99235478D01*
X142057927Y-99236389D01*
X142025451Y-99249841D01*
X142025450Y-99249842D01*
X141918917Y-99321022D01*
X140670112Y-100569818D01*
X140608789Y-100603302D01*
X140539097Y-100598318D01*
X140508120Y-100581403D01*
X140473236Y-100555289D01*
X140432961Y-100525139D01*
X140432959Y-100525138D01*
X140432958Y-100525137D01*
X140298112Y-100474843D01*
X140298113Y-100474843D01*
X140238513Y-100468436D01*
X140238511Y-100468435D01*
X140238503Y-100468435D01*
X140238494Y-100468435D01*
X139079059Y-100468435D01*
X139079053Y-100468436D01*
X139019446Y-100474843D01*
X138876289Y-100528238D01*
X138875365Y-100525762D01*
X138820539Y-100537687D01*
X138783070Y-100526685D01*
X138782491Y-100528238D01*
X138639332Y-100474843D01*
X138639333Y-100474843D01*
X138579733Y-100468436D01*
X138579731Y-100468435D01*
X138579723Y-100468435D01*
X138579714Y-100468435D01*
X137420279Y-100468435D01*
X137420273Y-100468436D01*
X137360666Y-100474843D01*
X137225821Y-100525137D01*
X137225814Y-100525141D01*
X137110605Y-100611387D01*
X137110602Y-100611390D01*
X137024356Y-100726599D01*
X137024351Y-100726608D01*
X136997424Y-100798807D01*
X136984154Y-100816533D01*
X136974955Y-100836678D01*
X136963624Y-100843959D01*
X136955554Y-100854741D01*
X136934805Y-100862479D01*
X136916177Y-100874452D01*
X136894261Y-100877603D01*
X136890090Y-100879159D01*
X136881242Y-100879475D01*
X136755935Y-100879475D01*
X136755894Y-100879473D01*
X136749795Y-100879473D01*
X136749794Y-100879473D01*
X136698547Y-100879474D01*
X136698538Y-100879475D01*
X136621677Y-100879475D01*
X136621665Y-100879477D01*
X136621657Y-100879478D01*
X136608428Y-100882109D01*
X136568559Y-100890040D01*
X136568560Y-100890041D01*
X136496006Y-100904474D01*
X136495994Y-100904478D01*
X136495983Y-100904481D01*
X136437114Y-100928868D01*
X136436788Y-100929002D01*
X136436687Y-100929044D01*
X136377614Y-100953513D01*
X136377607Y-100953517D01*
X136320472Y-100991696D01*
X136253795Y-101012575D01*
X136251579Y-101012595D01*
X133875600Y-101012595D01*
X133808561Y-100992910D01*
X133762806Y-100940106D01*
X133751600Y-100888595D01*
X133751600Y-98628103D01*
X133771285Y-98561064D01*
X133824089Y-98515309D01*
X133875595Y-98504103D01*
X163126600Y-98504095D01*
X163193639Y-98523780D01*
G37*
G04 #@! TD.AperFunction*
G04 #@! TA.AperFunction,Conductor*
G36*
X156880339Y-107419082D02*
G01*
X156938740Y-107458105D01*
X156940692Y-107459409D01*
X156940695Y-107459411D01*
X156946282Y-107461725D01*
X157059076Y-107508446D01*
X157059080Y-107508446D01*
X157059081Y-107508447D01*
X157184748Y-107533445D01*
X157184751Y-107533445D01*
X158194703Y-107533445D01*
X158224139Y-107542088D01*
X158254129Y-107548612D01*
X158259146Y-107552367D01*
X158261742Y-107553130D01*
X158282384Y-107569763D01*
X158419074Y-107706452D01*
X158441331Y-107728708D01*
X158474816Y-107790031D01*
X158477650Y-107816390D01*
X158477650Y-108448935D01*
X158477651Y-108448941D01*
X158484058Y-108508548D01*
X158534352Y-108643393D01*
X158534356Y-108643400D01*
X158620602Y-108758609D01*
X158620605Y-108758612D01*
X158717251Y-108830962D01*
X158759122Y-108886896D01*
X158764106Y-108956587D01*
X158730620Y-109017910D01*
X158717252Y-109029494D01*
X158621212Y-109101390D01*
X158534966Y-109216599D01*
X158534962Y-109216606D01*
X158484670Y-109351448D01*
X158482886Y-109358997D01*
X158479740Y-109358253D01*
X158458657Y-109409126D01*
X158401257Y-109448963D01*
X158331431Y-109451443D01*
X158271349Y-109415779D01*
X158245939Y-109374634D01*
X158205647Y-109266606D01*
X158205643Y-109266599D01*
X158119398Y-109151392D01*
X158119396Y-109151389D01*
X158119394Y-109151387D01*
X158119392Y-109151385D01*
X158099930Y-109136816D01*
X158058060Y-109080882D01*
X158052084Y-109034934D01*
X158050500Y-109034934D01*
X158050500Y-108871155D01*
X158050499Y-108871153D01*
X158043534Y-108836138D01*
X158019737Y-108716503D01*
X158019735Y-108716498D01*
X157959397Y-108570827D01*
X157959390Y-108570814D01*
X157871789Y-108439711D01*
X157871786Y-108439707D01*
X157760292Y-108328213D01*
X157760288Y-108328210D01*
X157629185Y-108240609D01*
X157629172Y-108240602D01*
X157483501Y-108180264D01*
X157483489Y-108180261D01*
X157328845Y-108149500D01*
X157328842Y-108149500D01*
X157171158Y-108149500D01*
X157171155Y-108149500D01*
X157016510Y-108180261D01*
X157016498Y-108180264D01*
X156870817Y-108240606D01*
X156869889Y-108241103D01*
X156869347Y-108241215D01*
X156865192Y-108242937D01*
X156864865Y-108242148D01*
X156801484Y-108255336D01*
X156736243Y-108230327D01*
X156694880Y-108174016D01*
X156687450Y-108131737D01*
X156687450Y-107522186D01*
X156707135Y-107455147D01*
X156759939Y-107409392D01*
X156829097Y-107399448D01*
X156880339Y-107419082D01*
G37*
G04 #@! TD.AperFunction*
G04 #@! TA.AperFunction,Conductor*
G36*
X151443834Y-102594889D02*
G01*
X151499767Y-102636761D01*
X151524184Y-102702225D01*
X151524500Y-102711071D01*
X151524501Y-103326000D01*
X151504817Y-103393039D01*
X151452013Y-103438794D01*
X151400501Y-103450000D01*
X151249990Y-103450000D01*
X151249990Y-104259889D01*
X151230305Y-104326928D01*
X151226310Y-104332772D01*
X151202184Y-104365979D01*
X151102104Y-104562393D01*
X151102103Y-104562396D01*
X151033985Y-104772047D01*
X151006789Y-104943755D01*
X150999500Y-104989778D01*
X150999500Y-105210222D01*
X150999876Y-105212595D01*
X151033985Y-105427952D01*
X151102103Y-105637603D01*
X151102104Y-105637606D01*
X151202185Y-105834023D01*
X151213584Y-105849711D01*
X151226307Y-105867224D01*
X151249788Y-105933028D01*
X151249990Y-105940109D01*
X151249990Y-106762495D01*
X151230305Y-106829534D01*
X151177501Y-106875289D01*
X151125990Y-106886495D01*
X150212849Y-106886495D01*
X150135980Y-106901786D01*
X150103766Y-106908194D01*
X150091294Y-106910674D01*
X150087175Y-106911494D01*
X149968790Y-106960530D01*
X149862251Y-107031717D01*
X149862244Y-107031723D01*
X148523043Y-108370926D01*
X148461720Y-108404411D01*
X148435362Y-108407245D01*
X147171956Y-108407245D01*
X147106859Y-108388783D01*
X147012410Y-108330525D01*
X147012407Y-108330524D01*
X146842310Y-108274161D01*
X146737330Y-108263435D01*
X146737323Y-108263435D01*
X145906544Y-108263435D01*
X145839505Y-108243750D01*
X145793750Y-108190946D01*
X145782544Y-108139435D01*
X145782544Y-107766061D01*
X145782543Y-107766058D01*
X145782432Y-107765027D01*
X145776136Y-107706452D01*
X145761274Y-107666606D01*
X145725842Y-107571606D01*
X145725838Y-107571599D01*
X145639592Y-107456390D01*
X145639589Y-107456387D01*
X145524380Y-107370141D01*
X145524373Y-107370137D01*
X145389527Y-107319843D01*
X145389528Y-107319843D01*
X145329928Y-107313436D01*
X145329926Y-107313435D01*
X145329918Y-107313435D01*
X145329909Y-107313435D01*
X143959824Y-107313435D01*
X143959818Y-107313436D01*
X143900211Y-107319843D01*
X143765366Y-107370137D01*
X143765364Y-107370139D01*
X143676060Y-107436992D01*
X143662147Y-107442731D01*
X143652934Y-107450668D01*
X143631883Y-107455215D01*
X143619041Y-107460513D01*
X143610435Y-107461725D01*
X143554901Y-107461725D01*
X143429226Y-107486724D01*
X143427324Y-107487511D01*
X143416791Y-107488995D01*
X143385550Y-107484411D01*
X143354099Y-107481597D01*
X143351241Y-107479377D01*
X143347661Y-107478852D01*
X143323858Y-107458105D01*
X143298921Y-107438734D01*
X143297716Y-107435320D01*
X143294990Y-107432944D01*
X143286183Y-107402626D01*
X143275677Y-107372844D01*
X143275499Y-107366207D01*
X143275499Y-106724000D01*
X143295184Y-106656961D01*
X143347988Y-106611206D01*
X143399499Y-106600000D01*
X143549990Y-106600000D01*
X143549990Y-105790137D01*
X143569675Y-105723098D01*
X143573673Y-105717250D01*
X143582770Y-105704730D01*
X143597815Y-105684022D01*
X143697895Y-105487606D01*
X143766015Y-105277951D01*
X143800500Y-105060222D01*
X143800500Y-104839778D01*
X143766015Y-104622049D01*
X143720187Y-104481003D01*
X143697896Y-104412396D01*
X143697895Y-104412393D01*
X143654347Y-104326928D01*
X143597815Y-104215978D01*
X143583408Y-104196148D01*
X143573672Y-104182747D01*
X143566519Y-104162702D01*
X143555013Y-104144797D01*
X143551558Y-104120770D01*
X143550192Y-104116941D01*
X143549990Y-104109862D01*
X143549990Y-103909495D01*
X143569675Y-103842456D01*
X143622479Y-103796701D01*
X143673990Y-103785495D01*
X144973476Y-103785495D01*
X145040515Y-103805180D01*
X145061154Y-103821811D01*
X145233253Y-103993907D01*
X145266738Y-104055227D01*
X145261754Y-104124919D01*
X145219884Y-104180853D01*
X145193025Y-104196148D01*
X145121924Y-104225599D01*
X145121914Y-104225604D01*
X144990811Y-104313205D01*
X144990807Y-104313208D01*
X144879313Y-104424702D01*
X144879310Y-104424706D01*
X144791709Y-104555809D01*
X144791702Y-104555822D01*
X144731364Y-104701493D01*
X144731361Y-104701505D01*
X144700600Y-104856148D01*
X144700600Y-105013841D01*
X144731361Y-105168484D01*
X144731364Y-105168496D01*
X144791702Y-105314167D01*
X144791709Y-105314180D01*
X144879310Y-105445283D01*
X144879313Y-105445287D01*
X144990807Y-105556781D01*
X144990811Y-105556784D01*
X145121914Y-105644385D01*
X145121927Y-105644392D01*
X145267598Y-105704730D01*
X145267603Y-105704732D01*
X145419257Y-105734898D01*
X145422253Y-105735494D01*
X145422256Y-105735495D01*
X145422258Y-105735495D01*
X145579944Y-105735495D01*
X145586007Y-105734898D01*
X145586155Y-105736403D01*
X145648310Y-105741961D01*
X145702184Y-105783042D01*
X145781215Y-105888612D01*
X145896424Y-105974858D01*
X145896431Y-105974862D01*
X146031277Y-106025156D01*
X146031276Y-106025156D01*
X146038204Y-106025900D01*
X146090887Y-106031565D01*
X147250332Y-106031564D01*
X147309943Y-106025156D01*
X147344133Y-106012404D01*
X147453101Y-105971762D01*
X147454025Y-105974240D01*
X147508824Y-105962310D01*
X147546318Y-105973319D01*
X147546899Y-105971762D01*
X147690057Y-106025156D01*
X147690056Y-106025156D01*
X147696984Y-106025900D01*
X147749667Y-106031565D01*
X148909112Y-106031564D01*
X148968723Y-106025156D01*
X149103571Y-105974861D01*
X149218786Y-105888611D01*
X149305036Y-105773396D01*
X149355331Y-105638548D01*
X149361740Y-105578938D01*
X149361739Y-104625831D01*
X149381423Y-104558793D01*
X149398053Y-104538156D01*
X151312821Y-102623388D01*
X151374142Y-102589905D01*
X151443834Y-102594889D01*
G37*
G04 #@! TD.AperFunction*
G04 #@! TA.AperFunction,Conductor*
G36*
X140127349Y-102551249D02*
G01*
X140173104Y-102604053D01*
X140184310Y-102655564D01*
X140184310Y-105661806D01*
X140198850Y-105734898D01*
X140204797Y-105764796D01*
X140209309Y-105787479D01*
X140251198Y-105888609D01*
X140258345Y-105905862D01*
X140303418Y-105973319D01*
X140329536Y-106012408D01*
X141357395Y-107040267D01*
X141357402Y-107040273D01*
X141441371Y-107096379D01*
X141441372Y-107096379D01*
X141441501Y-107096465D01*
X141441503Y-107096466D01*
X141463943Y-107111460D01*
X141464106Y-107111527D01*
X141469259Y-107114961D01*
X141487933Y-107137248D01*
X141508709Y-107157597D01*
X141510392Y-107164053D01*
X141514132Y-107168516D01*
X141516573Y-107187756D01*
X141524500Y-107218151D01*
X141524501Y-107960495D01*
X141504817Y-108027534D01*
X141452013Y-108073289D01*
X141400501Y-108084495D01*
X140785739Y-108084495D01*
X140718700Y-108064810D01*
X140672945Y-108012006D01*
X140661739Y-107960495D01*
X140661739Y-107861064D01*
X140661738Y-107861058D01*
X140655331Y-107801451D01*
X140605037Y-107666606D01*
X140605033Y-107666599D01*
X140518787Y-107551390D01*
X140518784Y-107551387D01*
X140403575Y-107465141D01*
X140403568Y-107465137D01*
X140268722Y-107414843D01*
X140268723Y-107414843D01*
X140209123Y-107408436D01*
X140209121Y-107408435D01*
X140209113Y-107408435D01*
X140209105Y-107408435D01*
X139584872Y-107408435D01*
X139517833Y-107388750D01*
X139495057Y-107369929D01*
X139487696Y-107362196D01*
X139477306Y-107346646D01*
X139386699Y-107256039D01*
X139222545Y-107091885D01*
X139058069Y-106927408D01*
X139024584Y-106866085D01*
X139021750Y-106839727D01*
X139021750Y-106815070D01*
X139041435Y-106748031D01*
X139063421Y-106728979D01*
X139061831Y-106727389D01*
X139098150Y-106691070D01*
X139098150Y-105628930D01*
X139089025Y-105619805D01*
X139053061Y-105609245D01*
X139007306Y-105556441D01*
X138999726Y-105528818D01*
X138998946Y-105529003D01*
X138997162Y-105521455D01*
X138946867Y-105386606D01*
X138946863Y-105386599D01*
X138860617Y-105271390D01*
X138860614Y-105271387D01*
X138745405Y-105185141D01*
X138745398Y-105185137D01*
X138610552Y-105134843D01*
X138610553Y-105134843D01*
X138549279Y-105128256D01*
X138484728Y-105101518D01*
X138444880Y-105044126D01*
X138442386Y-104974301D01*
X138478038Y-104914212D01*
X138540518Y-104882937D01*
X138549281Y-104881677D01*
X138609943Y-104875156D01*
X138660236Y-104856398D01*
X138744791Y-104824861D01*
X138860006Y-104738611D01*
X138946256Y-104623396D01*
X138996551Y-104488548D01*
X138996551Y-104488546D01*
X138998334Y-104481003D01*
X139000468Y-104481507D01*
X139022938Y-104427264D01*
X139080330Y-104387416D01*
X139093295Y-104385314D01*
X139097540Y-104381070D01*
X139097540Y-103318930D01*
X139068863Y-103290253D01*
X139065337Y-103288643D01*
X139061891Y-103283281D01*
X139061221Y-103282611D01*
X139061366Y-103282465D01*
X139051047Y-103266408D01*
X139033746Y-103246441D01*
X139031458Y-103235926D01*
X139027563Y-103229865D01*
X139022540Y-103194930D01*
X139022540Y-103168239D01*
X139042225Y-103101200D01*
X139058858Y-103080558D01*
X139477310Y-102662100D01*
X139495044Y-102635559D01*
X139527707Y-102586675D01*
X139581319Y-102541869D01*
X139630810Y-102531564D01*
X140060310Y-102531564D01*
X140127349Y-102551249D01*
G37*
G04 #@! TD.AperFunction*
G04 #@! TA.AperFunction,Conductor*
G36*
X154695928Y-106317651D02*
G01*
X154696418Y-106317590D01*
X154727540Y-106332480D01*
X154758738Y-106347114D01*
X154759154Y-106347605D01*
X154759445Y-106347744D01*
X154781577Y-106374021D01*
X154845339Y-106475497D01*
X154972893Y-106603051D01*
X155018690Y-106631827D01*
X155064980Y-106684160D01*
X155075629Y-106753214D01*
X155047254Y-106817062D01*
X154988864Y-106855434D01*
X154965972Y-106860109D01*
X154921200Y-106864922D01*
X154786351Y-106915217D01*
X154786344Y-106915221D01*
X154671135Y-107001467D01*
X154633041Y-107052354D01*
X154577107Y-107094224D01*
X154507415Y-107099208D01*
X154486330Y-107092606D01*
X154484597Y-107091888D01*
X154484593Y-107091887D01*
X154484588Y-107091885D01*
X154329945Y-107061125D01*
X154329942Y-107061125D01*
X154275600Y-107061125D01*
X154266914Y-107058574D01*
X154257953Y-107059863D01*
X154233912Y-107048884D01*
X154208561Y-107041440D01*
X154202633Y-107034599D01*
X154194397Y-107030838D01*
X154180107Y-107008603D01*
X154162806Y-106988636D01*
X154160518Y-106978121D01*
X154156623Y-106972060D01*
X154151600Y-106937125D01*
X154151600Y-106860926D01*
X154171285Y-106793887D01*
X154187916Y-106773247D01*
X154540083Y-106421089D01*
X154573482Y-106371102D01*
X154599916Y-106349011D01*
X154626225Y-106326680D01*
X154626715Y-106326614D01*
X154627093Y-106326299D01*
X154661263Y-106322006D01*
X154695482Y-106317442D01*
X154695928Y-106317651D01*
G37*
G04 #@! TD.AperFunction*
G04 #@! TA.AperFunction,Conductor*
G36*
X154883620Y-104875647D02*
G01*
X154932823Y-104912480D01*
X154932826Y-104912482D01*
X155067672Y-104962776D01*
X155067671Y-104962776D01*
X155073848Y-104963440D01*
X155127282Y-104969185D01*
X155191045Y-104969184D01*
X155258082Y-104988868D01*
X155303838Y-105041671D01*
X155313782Y-105110829D01*
X155284758Y-105174385D01*
X155231999Y-105210225D01*
X155125635Y-105247443D01*
X154972892Y-105343419D01*
X154896991Y-105419321D01*
X154835668Y-105452806D01*
X154765976Y-105447822D01*
X154710043Y-105405950D01*
X154685626Y-105340486D01*
X154685310Y-105331640D01*
X154685310Y-104974914D01*
X154704995Y-104907875D01*
X154757799Y-104862120D01*
X154826957Y-104852176D01*
X154883620Y-104875647D01*
G37*
G04 #@! TD.AperFunction*
G04 #@! TA.AperFunction,Conductor*
G36*
X143931122Y-101446490D02*
G01*
X143951764Y-101463124D01*
X143982570Y-101493930D01*
X145532353Y-101493930D01*
X145585037Y-101508871D01*
X145586179Y-101506424D01*
X145592722Y-101509475D01*
X145759884Y-101564865D01*
X145762822Y-101565839D01*
X145867807Y-101576565D01*
X146307209Y-101576565D01*
X146374248Y-101596250D01*
X146420003Y-101649054D01*
X146429947Y-101718212D01*
X146407527Y-101773451D01*
X146365286Y-101831589D01*
X146275927Y-102006965D01*
X146215100Y-102194168D01*
X146184310Y-102388572D01*
X146184310Y-102585417D01*
X146215101Y-102779822D01*
X146215102Y-102779829D01*
X146226859Y-102816013D01*
X146228854Y-102885854D01*
X146192773Y-102945687D01*
X146130071Y-102976514D01*
X146060657Y-102968549D01*
X146021250Y-102942014D01*
X145708945Y-102629715D01*
X145701719Y-102624887D01*
X145612638Y-102565366D01*
X145612638Y-102565365D01*
X145602411Y-102558532D01*
X145602401Y-102558526D01*
X145556014Y-102539313D01*
X145524641Y-102526318D01*
X145507816Y-102519348D01*
X145484023Y-102509493D01*
X145484011Y-102509490D01*
X145433340Y-102499411D01*
X145433337Y-102499411D01*
X145358351Y-102484495D01*
X145358349Y-102484495D01*
X143399500Y-102484495D01*
X143332461Y-102464810D01*
X143286706Y-102412006D01*
X143275500Y-102360495D01*
X143275499Y-101550805D01*
X143295183Y-101483766D01*
X143347987Y-101438011D01*
X143399499Y-101426805D01*
X143864083Y-101426805D01*
X143931122Y-101446490D01*
G37*
G04 #@! TD.AperFunction*
G04 #@! TD*
M02*
