G04 #@! TF.GenerationSoftware,KiCad,Pcbnew,9.0.4*
G04 #@! TF.CreationDate,2025-10-31T22:45:53+03:00*
G04 #@! TF.ProjectId,ECAD_main,45434144-5f6d-4616-996e-2e6b69636164,rev?*
G04 #@! TF.SameCoordinates,Original*
G04 #@! TF.FileFunction,Copper,L2,Bot*
G04 #@! TF.FilePolarity,Positive*
%FSLAX46Y46*%
G04 Gerber Fmt 4.6, Leading zero omitted, Abs format (unit mm)*
G04 Created by KiCad (PCBNEW 9.0.4) date 2025-10-31 22:45:53*
%MOMM*%
%LPD*%
G01*
G04 APERTURE LIST*
G04 #@! TA.AperFunction,ComponentPad*
%ADD10C,1.500000*%
G04 #@! TD*
G04 #@! TA.AperFunction,ViaPad*
%ADD11C,0.600000*%
G04 #@! TD*
G04 #@! TA.AperFunction,Conductor*
%ADD12C,0.300000*%
G04 #@! TD*
G04 APERTURE END LIST*
D10*
G04 #@! TO.P,BL1,1,1*
G04 #@! TO.N,GND*
X147434810Y-107586995D03*
G04 #@! TO.P,BL1,2,2*
G04 #@! TO.N,Net-(BL1-Pad2)*
X147434810Y-102486995D03*
G04 #@! TD*
D11*
G04 #@! TO.N,Net-(BL1-Pad2)*
X159499830Y-101325025D03*
G04 #@! TO.N,OUT*
X145501100Y-104934995D03*
X136280050Y-104013095D03*
G04 #@! TO.N,Net-(C2-Pad1)*
X161147280Y-101275025D03*
X154751100Y-103778425D03*
G04 #@! TO.N,GND*
X139649740Y-102915045D03*
X139650000Y-107100000D03*
X157464720Y-105065685D03*
X162079130Y-107866385D03*
X143251100Y-110007745D03*
X143501100Y-101726305D03*
G04 #@! TO.N,+5*
X136280050Y-106013095D03*
X154251100Y-107861625D03*
X159063380Y-104143255D03*
X157250000Y-108950000D03*
X162079130Y-109977545D03*
X157273500Y-101025165D03*
X155559420Y-103187155D03*
G04 #@! TD*
D12*
G04 #@! TO.N,Net-(BL1-Pad2)*
X150246620Y-99675175D02*
X157849970Y-99675175D01*
X157849970Y-99675175D02*
X159499830Y-101325025D01*
X147434810Y-102486985D02*
X150246620Y-99675175D01*
G04 #@! TO.N,OUT*
X136280050Y-104013095D02*
X139612350Y-104013095D01*
X143832500Y-103334995D02*
X145432500Y-104934995D01*
X139612350Y-104013095D02*
X140290440Y-103334995D01*
X140290440Y-103334995D02*
X143832500Y-103334995D01*
X145432500Y-104934995D02*
X145501100Y-104934995D01*
G04 #@! TO.N,Net-(C2-Pad1)*
X156962850Y-100275165D02*
X157584160Y-100275165D01*
X160347280Y-102075025D02*
X161147280Y-101275025D01*
X158386670Y-101272525D02*
X159189170Y-102075025D01*
X159189170Y-102075025D02*
X160347280Y-102075025D01*
X154751100Y-103778425D02*
X154751100Y-102486915D01*
X154751100Y-102486915D02*
X156962850Y-100275165D01*
X157584160Y-100275165D02*
X158386670Y-101077675D01*
X158386670Y-101272525D02*
X158386670Y-101077675D01*
G04 #@! TO.N,+5*
X146716190Y-108565425D02*
X146937750Y-108786985D01*
X153325740Y-108786985D02*
X154251100Y-107861625D01*
X136158180Y-106013095D02*
X138710520Y-108565425D01*
X146937750Y-108786985D02*
X153325740Y-108786985D01*
X138710520Y-108565425D02*
X146716190Y-108565425D01*
G04 #@! TD*
G04 #@! TA.AperFunction,Conductor*
G04 #@! TO.N,GND*
G36*
X162783379Y-98523780D02*
G01*
X162829134Y-98576584D01*
X162840340Y-98628095D01*
X162840340Y-109307314D01*
X162834101Y-109328559D01*
X162832522Y-109350648D01*
X162824449Y-109361431D01*
X162820655Y-109374353D01*
X162803921Y-109388852D01*
X162790650Y-109406581D01*
X162778029Y-109411288D01*
X162767851Y-109420108D01*
X162745933Y-109423259D01*
X162725186Y-109430998D01*
X162712025Y-109428135D01*
X162698693Y-109430052D01*
X162678549Y-109420852D01*
X162656913Y-109416146D01*
X162639187Y-109402877D01*
X162635137Y-109401027D01*
X162628659Y-109394995D01*
X162620949Y-109387285D01*
X162587464Y-109325962D01*
X162584630Y-109299604D01*
X162584630Y-108784321D01*
X162584629Y-108784319D01*
X162581233Y-108725841D01*
X162581232Y-108725821D01*
X162577909Y-108697305D01*
X162567757Y-108639561D01*
X162515077Y-108505672D01*
X162480502Y-108444956D01*
X162392237Y-108331334D01*
X162392235Y-108331333D01*
X162392235Y-108331332D01*
X162275541Y-108247185D01*
X162275540Y-108247184D01*
X162275534Y-108247180D01*
X162213623Y-108214795D01*
X162077942Y-108166929D01*
X162005061Y-108152431D01*
X161981801Y-108145375D01*
X161950677Y-108132483D01*
X161929239Y-108121024D01*
X161901230Y-108102309D01*
X161882442Y-108086890D01*
X161858625Y-108063074D01*
X161843204Y-108044284D01*
X161824488Y-108016275D01*
X161813031Y-107994840D01*
X161802230Y-107968764D01*
X161800137Y-107963711D01*
X161793084Y-107940460D01*
X161786511Y-107907416D01*
X161784130Y-107883229D01*
X161784130Y-107849538D01*
X161786512Y-107825349D01*
X161793086Y-107792299D01*
X161800136Y-107769059D01*
X161813032Y-107737924D01*
X161824481Y-107716504D01*
X161843209Y-107688475D01*
X161858618Y-107669701D01*
X161882444Y-107645874D01*
X161901218Y-107630465D01*
X161929249Y-107611736D01*
X161950663Y-107600289D01*
X161981804Y-107587390D01*
X162005048Y-107580340D01*
X162077942Y-107565841D01*
X162134678Y-107551089D01*
X162161997Y-107542266D01*
X162216634Y-107521050D01*
X162337673Y-107443262D01*
X162390477Y-107397507D01*
X162484697Y-107288773D01*
X162544468Y-107157896D01*
X162564153Y-107090857D01*
X162564154Y-107090853D01*
X162584630Y-106948437D01*
X162584630Y-104054357D01*
X162581733Y-104000319D01*
X162578899Y-103973960D01*
X162570242Y-103920536D01*
X162519958Y-103785728D01*
X162486472Y-103724406D01*
X162400249Y-103609230D01*
X162400244Y-103609225D01*
X162400238Y-103609218D01*
X161955890Y-103164879D01*
X161955876Y-103164865D01*
X161915612Y-103128699D01*
X161911479Y-103125369D01*
X161894968Y-103112064D01*
X161871786Y-103095348D01*
X161851095Y-103080428D01*
X161753471Y-103035843D01*
X161720221Y-103020658D01*
X161653176Y-103000971D01*
X161605703Y-102994145D01*
X161510759Y-102980495D01*
X161510757Y-102980495D01*
X158794610Y-102980495D01*
X158727571Y-102960810D01*
X158681816Y-102908006D01*
X158670610Y-102856495D01*
X158670610Y-102742870D01*
X158690295Y-102675831D01*
X158743099Y-102630076D01*
X158812257Y-102620132D01*
X158863498Y-102639767D01*
X158881043Y-102651490D01*
X158999426Y-102700526D01*
X158999430Y-102700526D01*
X158999431Y-102700527D01*
X159125098Y-102725525D01*
X159125101Y-102725525D01*
X160411351Y-102725525D01*
X160495895Y-102708707D01*
X160537024Y-102700526D01*
X160655407Y-102651490D01*
X160716469Y-102610690D01*
X160761949Y-102580302D01*
X161250212Y-102092037D01*
X161311532Y-102058555D01*
X161313597Y-102058124D01*
X161380777Y-102044762D01*
X161526459Y-101984419D01*
X161657569Y-101896814D01*
X161769069Y-101785314D01*
X161856674Y-101654204D01*
X161917017Y-101508522D01*
X161947780Y-101353867D01*
X161947780Y-101196183D01*
X161947780Y-101196180D01*
X161947779Y-101196178D01*
X161937698Y-101145496D01*
X161917017Y-101041528D01*
X161868187Y-100923641D01*
X161856677Y-100895852D01*
X161856670Y-100895839D01*
X161769069Y-100764736D01*
X161769066Y-100764732D01*
X161657572Y-100653238D01*
X161657568Y-100653235D01*
X161526465Y-100565634D01*
X161526452Y-100565627D01*
X161380781Y-100505289D01*
X161380769Y-100505286D01*
X161226125Y-100474525D01*
X161226122Y-100474525D01*
X161068438Y-100474525D01*
X161068435Y-100474525D01*
X160913790Y-100505286D01*
X160913778Y-100505289D01*
X160768107Y-100565627D01*
X160768094Y-100565634D01*
X160636991Y-100653235D01*
X160636987Y-100653238D01*
X160525493Y-100764732D01*
X160525490Y-100764736D01*
X160437889Y-100895839D01*
X160437884Y-100895848D01*
X160426372Y-100923641D01*
X160382529Y-100978043D01*
X160316235Y-101000106D01*
X160248536Y-100982825D01*
X160208710Y-100945076D01*
X160121619Y-100814736D01*
X160121616Y-100814732D01*
X160010122Y-100703238D01*
X160010118Y-100703235D01*
X159879015Y-100615634D01*
X159879002Y-100615627D01*
X159733331Y-100555289D01*
X159733321Y-100555286D01*
X159666246Y-100541944D01*
X159604335Y-100509559D01*
X159602804Y-100508055D01*
X158264638Y-99169897D01*
X158264634Y-99169894D01*
X158264632Y-99169892D01*
X158158100Y-99098712D01*
X158158098Y-99098711D01*
X158158097Y-99098710D01*
X158039717Y-99049675D01*
X158039712Y-99049673D01*
X157964035Y-99034620D01*
X157939037Y-99029647D01*
X157914040Y-99024675D01*
X157914039Y-99024675D01*
X150182551Y-99024675D01*
X150182549Y-99024675D01*
X150056943Y-99049659D01*
X150056944Y-99049660D01*
X150056881Y-99049672D01*
X150056872Y-99049675D01*
X149938494Y-99098708D01*
X149831946Y-99169901D01*
X147778291Y-101223556D01*
X147716968Y-101257041D01*
X147671213Y-101258348D01*
X147533234Y-101236495D01*
X147533227Y-101236495D01*
X147336393Y-101236495D01*
X147336388Y-101236495D01*
X147141983Y-101267285D01*
X146954780Y-101328112D01*
X146779404Y-101417471D01*
X146688551Y-101483480D01*
X146620164Y-101533167D01*
X146620162Y-101533169D01*
X146620161Y-101533169D01*
X146480984Y-101672346D01*
X146480984Y-101672347D01*
X146480982Y-101672349D01*
X146431295Y-101740736D01*
X146365286Y-101831589D01*
X146275927Y-102006965D01*
X146215100Y-102194168D01*
X146184310Y-102388572D01*
X146184310Y-102585417D01*
X146215100Y-102779821D01*
X146275927Y-102967024D01*
X146321620Y-103056700D01*
X146334516Y-103125369D01*
X146308240Y-103190110D01*
X146251133Y-103230367D01*
X146211135Y-103236995D01*
X145509810Y-103236995D01*
X145509810Y-103792996D01*
X145490125Y-103860035D01*
X145437321Y-103905790D01*
X145368163Y-103915734D01*
X145304607Y-103886709D01*
X145298129Y-103880677D01*
X144247174Y-102829722D01*
X144247170Y-102829719D01*
X144247169Y-102829718D01*
X144172492Y-102779821D01*
X144140625Y-102758528D01*
X144022247Y-102709495D01*
X144022238Y-102709492D01*
X144022176Y-102709480D01*
X144022176Y-102709479D01*
X143896571Y-102684495D01*
X143896569Y-102684495D01*
X140226371Y-102684495D01*
X140226369Y-102684495D01*
X140100701Y-102709492D01*
X140100695Y-102709494D01*
X140009577Y-102747236D01*
X140009568Y-102747240D01*
X139982313Y-102758530D01*
X139982311Y-102758530D01*
X139982309Y-102758532D01*
X139966072Y-102769381D01*
X139966059Y-102769388D01*
X139927670Y-102795041D01*
X139927669Y-102795041D01*
X139875882Y-102829645D01*
X139875771Y-102829718D01*
X139875767Y-102829721D01*
X139875767Y-102829722D01*
X139394392Y-103311104D01*
X139379220Y-103326276D01*
X139317897Y-103359761D01*
X139291538Y-103362595D01*
X136784985Y-103362595D01*
X136717946Y-103342910D01*
X136716140Y-103341728D01*
X136659229Y-103303701D01*
X136659222Y-103303697D01*
X136513551Y-103243359D01*
X136513539Y-103243356D01*
X136358895Y-103212595D01*
X136358892Y-103212595D01*
X136201208Y-103212595D01*
X136201205Y-103212595D01*
X136046560Y-103243356D01*
X136046548Y-103243359D01*
X135900877Y-103303697D01*
X135900864Y-103303704D01*
X135769761Y-103391305D01*
X135769757Y-103391308D01*
X135658263Y-103502802D01*
X135658260Y-103502806D01*
X135570659Y-103633909D01*
X135570652Y-103633922D01*
X135510314Y-103779593D01*
X135510311Y-103779605D01*
X135479550Y-103934248D01*
X135479550Y-104091941D01*
X135510311Y-104246584D01*
X135510314Y-104246596D01*
X135570652Y-104392267D01*
X135570659Y-104392280D01*
X135658260Y-104523383D01*
X135658263Y-104523387D01*
X135769757Y-104634881D01*
X135769761Y-104634884D01*
X135900864Y-104722485D01*
X135900877Y-104722492D01*
X136020520Y-104772049D01*
X136046553Y-104782832D01*
X136201203Y-104813594D01*
X136201206Y-104813595D01*
X136201208Y-104813595D01*
X136358894Y-104813595D01*
X136358895Y-104813594D01*
X136513547Y-104782832D01*
X136659229Y-104722489D01*
X136716094Y-104684492D01*
X136782771Y-104663615D01*
X136784985Y-104663595D01*
X139676420Y-104663595D01*
X139815124Y-104636004D01*
X139830783Y-104626712D01*
X139879859Y-104606384D01*
X139916439Y-104591232D01*
X139919919Y-104589933D01*
X139920479Y-104589558D01*
X139920481Y-104589558D01*
X140027023Y-104518369D01*
X140523571Y-104021813D01*
X140584893Y-103988329D01*
X140611252Y-103985495D01*
X141126276Y-103985495D01*
X141193315Y-104005180D01*
X141239070Y-104057984D01*
X141249014Y-104127142D01*
X141226595Y-104182379D01*
X141202186Y-104215975D01*
X141102104Y-104412393D01*
X141102103Y-104412396D01*
X141033985Y-104622047D01*
X141005866Y-104799584D01*
X140999500Y-104839778D01*
X140999500Y-105060222D01*
X141013744Y-105150156D01*
X141033985Y-105277952D01*
X141102103Y-105487603D01*
X141102104Y-105487606D01*
X141202187Y-105684025D01*
X141331752Y-105862358D01*
X141331756Y-105862363D01*
X141487636Y-106018243D01*
X141487641Y-106018247D01*
X141643192Y-106131260D01*
X141665978Y-106147815D01*
X141794375Y-106213237D01*
X141862393Y-106247895D01*
X141862396Y-106247896D01*
X141967221Y-106281955D01*
X142072049Y-106316015D01*
X142289778Y-106350500D01*
X142289779Y-106350500D01*
X142510221Y-106350500D01*
X142510222Y-106350500D01*
X142727951Y-106316015D01*
X142937606Y-106247895D01*
X143134022Y-106147815D01*
X143312365Y-106018242D01*
X143468242Y-105862365D01*
X143597815Y-105684022D01*
X143697895Y-105487606D01*
X143766015Y-105277951D01*
X143800500Y-105060222D01*
X143800500Y-104839778D01*
X143766015Y-104622049D01*
X143722402Y-104487819D01*
X143716932Y-104470984D01*
X143714937Y-104401142D01*
X143751018Y-104341310D01*
X143813719Y-104310482D01*
X143883133Y-104318447D01*
X143922544Y-104344985D01*
X144703535Y-105125976D01*
X144730415Y-105166204D01*
X144791704Y-105314171D01*
X144791709Y-105314180D01*
X144879310Y-105445283D01*
X144879313Y-105445287D01*
X144990807Y-105556781D01*
X144990811Y-105556784D01*
X145121914Y-105644385D01*
X145121927Y-105644392D01*
X145217604Y-105684022D01*
X145267603Y-105704732D01*
X145384560Y-105727996D01*
X145410001Y-105733057D01*
X145471912Y-105765442D01*
X145506486Y-105826157D01*
X145509810Y-105854674D01*
X145509810Y-106795565D01*
X145490125Y-106862604D01*
X145437321Y-106908359D01*
X145385810Y-106919565D01*
X140461832Y-106919565D01*
X140439951Y-106921818D01*
X140358801Y-106930177D01*
X140358797Y-106930177D01*
X140358795Y-106930178D01*
X140331833Y-106935791D01*
X140309304Y-106940482D01*
X140210594Y-106971873D01*
X140210593Y-106971873D01*
X140088182Y-107047489D01*
X140034569Y-107092295D01*
X139938420Y-107199335D01*
X139885925Y-107277898D01*
X139870505Y-107296687D01*
X139846693Y-107320499D01*
X139827903Y-107335920D01*
X139799885Y-107354641D01*
X139778446Y-107366100D01*
X139747328Y-107378989D01*
X139724071Y-107386045D01*
X139707340Y-107389373D01*
X139691031Y-107392617D01*
X139666841Y-107395000D01*
X139633159Y-107395000D01*
X139608970Y-107392617D01*
X139575924Y-107386044D01*
X139552667Y-107378988D01*
X139521547Y-107366098D01*
X139500107Y-107354638D01*
X139472099Y-107335923D01*
X139453312Y-107320505D01*
X139429495Y-107296689D01*
X139414072Y-107277897D01*
X139395357Y-107249888D01*
X139383902Y-107228459D01*
X139347286Y-107140057D01*
X139347284Y-107140057D01*
X139331258Y-107101365D01*
X139324118Y-107087706D01*
X139322168Y-107082479D01*
X139322167Y-107082478D01*
X139322165Y-107082471D01*
X139288680Y-107021148D01*
X139202456Y-106905967D01*
X139202451Y-106905962D01*
X139202446Y-106905956D01*
X137811926Y-105515437D01*
X137811911Y-105515422D01*
X137811887Y-105515400D01*
X137771669Y-105479273D01*
X137771657Y-105479263D01*
X137751006Y-105462621D01*
X137707124Y-105430978D01*
X137576250Y-105371208D01*
X137509205Y-105351521D01*
X137447135Y-105342597D01*
X137366788Y-105331045D01*
X137366786Y-105331045D01*
X136737768Y-105331045D01*
X136670729Y-105311360D01*
X136668877Y-105310147D01*
X136659235Y-105303704D01*
X136659222Y-105303697D01*
X136513551Y-105243359D01*
X136513539Y-105243356D01*
X136358895Y-105212595D01*
X136358892Y-105212595D01*
X136201208Y-105212595D01*
X136201205Y-105212595D01*
X136046560Y-105243356D01*
X136046548Y-105243359D01*
X135900877Y-105303697D01*
X135900864Y-105303704D01*
X135891223Y-105310147D01*
X135824546Y-105331025D01*
X135822332Y-105331045D01*
X135804050Y-105331045D01*
X135804041Y-105331045D01*
X135804040Y-105331046D01*
X135696599Y-105342597D01*
X135696587Y-105342599D01*
X135645077Y-105353805D01*
X135542552Y-105387928D01*
X135542546Y-105387931D01*
X135421512Y-105465716D01*
X135421501Y-105465724D01*
X135368709Y-105511468D01*
X135274483Y-105620209D01*
X135274480Y-105620213D01*
X135214714Y-105751079D01*
X135195026Y-105818127D01*
X135174550Y-105960546D01*
X135174550Y-109379612D01*
X135186102Y-109487054D01*
X135186104Y-109487064D01*
X135197310Y-109538575D01*
X135231437Y-109641111D01*
X135231438Y-109641113D01*
X135309225Y-109762148D01*
X135309228Y-109762152D01*
X135354983Y-109814955D01*
X135463714Y-109909171D01*
X135594591Y-109968942D01*
X135661630Y-109988627D01*
X135661634Y-109988628D01*
X135804050Y-110009104D01*
X142571799Y-110009101D01*
X142571805Y-110009101D01*
X142581951Y-110008556D01*
X142625843Y-110006204D01*
X142625851Y-110006203D01*
X142625853Y-110006203D01*
X142625854Y-110006203D01*
X142632847Y-110005450D01*
X142652201Y-110003370D01*
X142652211Y-110003368D01*
X142652214Y-110003368D01*
X142661813Y-110001812D01*
X142705613Y-109994715D01*
X142840422Y-109944433D01*
X142901745Y-109910948D01*
X142901747Y-109910947D01*
X143016929Y-109824722D01*
X143059328Y-109782321D01*
X143064753Y-109777993D01*
X143066590Y-109777242D01*
X143073194Y-109771822D01*
X143101213Y-109753100D01*
X143122636Y-109741648D01*
X143153775Y-109728751D01*
X143177018Y-109721700D01*
X143210070Y-109715126D01*
X143234254Y-109712745D01*
X143267942Y-109712745D01*
X143292127Y-109715126D01*
X143325179Y-109721701D01*
X143348425Y-109728751D01*
X143379558Y-109741647D01*
X143400990Y-109753104D01*
X143428998Y-109771819D01*
X143447786Y-109787238D01*
X143485259Y-109824711D01*
X143485294Y-109824743D01*
X143525536Y-109860890D01*
X143546181Y-109877526D01*
X143571885Y-109896061D01*
X143590060Y-109909167D01*
X143720937Y-109968938D01*
X143787976Y-109988623D01*
X143787980Y-109988624D01*
X143930396Y-110009100D01*
X156710914Y-110009095D01*
X156777953Y-110028780D01*
X156823708Y-110081583D01*
X156834203Y-110119836D01*
X156837200Y-110147707D01*
X156837202Y-110147724D01*
X156845855Y-110201120D01*
X156845855Y-110201122D01*
X156896136Y-110335927D01*
X156896138Y-110335932D01*
X156929623Y-110397255D01*
X157015847Y-110512436D01*
X157015851Y-110512440D01*
X157015856Y-110512446D01*
X157483984Y-110980574D01*
X157483993Y-110980582D01*
X157483998Y-110980587D01*
X157524254Y-111016748D01*
X157544898Y-111033384D01*
X157544905Y-111033389D01*
X157544904Y-111033389D01*
X157582362Y-111060399D01*
X157588798Y-111065040D01*
X157719678Y-111124807D01*
X157786717Y-111144490D01*
X157786722Y-111144490D01*
X157786723Y-111144491D01*
X157801998Y-111146686D01*
X157929133Y-111164964D01*
X161955142Y-111164887D01*
X162062592Y-111153333D01*
X162114101Y-111142127D01*
X162216634Y-111108000D01*
X162332730Y-111033389D01*
X162337667Y-111030216D01*
X162337667Y-111030215D01*
X162337673Y-111030212D01*
X162390477Y-110984457D01*
X162484697Y-110875723D01*
X162544468Y-110744846D01*
X162564153Y-110677807D01*
X162564154Y-110677803D01*
X162567213Y-110656518D01*
X162576411Y-110636375D01*
X162581120Y-110614734D01*
X162594384Y-110597014D01*
X162596234Y-110592965D01*
X162602244Y-110586508D01*
X162628662Y-110560090D01*
X162689984Y-110526608D01*
X162759676Y-110531594D01*
X162815609Y-110573466D01*
X162840024Y-110638931D01*
X162840340Y-110647775D01*
X162840340Y-111379095D01*
X162820655Y-111446134D01*
X162767851Y-111491889D01*
X162716340Y-111503095D01*
X133875600Y-111503103D01*
X133808561Y-111483418D01*
X133762806Y-111430614D01*
X133751600Y-111379103D01*
X133751600Y-98628103D01*
X133771285Y-98561064D01*
X133824089Y-98515309D01*
X133875595Y-98504103D01*
X162716341Y-98504095D01*
X162783379Y-98523780D01*
G37*
G04 #@! TD.AperFunction*
G04 #@! TA.AperFunction,Conductor*
G36*
X148412063Y-106856680D02*
G01*
X148457818Y-106909484D01*
X148467762Y-106978642D01*
X148438737Y-107042198D01*
X148426227Y-107054708D01*
X148384509Y-107090857D01*
X148373963Y-107099995D01*
X148339249Y-107140057D01*
X148279743Y-107208729D01*
X148279740Y-107208733D01*
X148219974Y-107339599D01*
X148200286Y-107406647D01*
X148195022Y-107443262D01*
X148179812Y-107549055D01*
X148179810Y-107549066D01*
X148179810Y-107635876D01*
X148178283Y-107655275D01*
X148162993Y-107751805D01*
X148158451Y-107770724D01*
X148128242Y-107863698D01*
X148120796Y-107881675D01*
X148076422Y-107968764D01*
X148066255Y-107985355D01*
X148008798Y-108064437D01*
X147996163Y-108079230D01*
X147975230Y-108100164D01*
X147913908Y-108133651D01*
X147887547Y-108136485D01*
X147258558Y-108136485D01*
X147191519Y-108116800D01*
X147170876Y-108100165D01*
X147130863Y-108060152D01*
X147130863Y-108060151D01*
X147107112Y-108044281D01*
X147024317Y-107988960D01*
X146905934Y-107939924D01*
X146905928Y-107939922D01*
X146827763Y-107924374D01*
X146816411Y-107918436D01*
X146803686Y-107916976D01*
X146786047Y-107902552D01*
X146765852Y-107891989D01*
X146758243Y-107879818D01*
X146749597Y-107872748D01*
X146734025Y-107841078D01*
X146711166Y-107770724D01*
X146706627Y-107751819D01*
X146691336Y-107655266D01*
X146689810Y-107635870D01*
X146689810Y-107549075D01*
X146689810Y-107549065D01*
X146678257Y-107441609D01*
X146667051Y-107390098D01*
X146655249Y-107354638D01*
X146632926Y-107287567D01*
X146632923Y-107287561D01*
X146602187Y-107239735D01*
X146555135Y-107166522D01*
X146532203Y-107140057D01*
X146509384Y-107113722D01*
X146509381Y-107113719D01*
X146441279Y-107054707D01*
X146403505Y-106995929D01*
X146403505Y-106926059D01*
X146441280Y-106867281D01*
X146504836Y-106838257D01*
X146522482Y-106836995D01*
X148345024Y-106836995D01*
X148412063Y-106856680D01*
G37*
G04 #@! TD.AperFunction*
G04 #@! TA.AperFunction,Conductor*
G36*
X155760071Y-100345360D02*
G01*
X155805826Y-100398164D01*
X155815770Y-100467322D01*
X155786745Y-100530878D01*
X155780713Y-100537356D01*
X154245827Y-102072240D01*
X154245826Y-102072241D01*
X154174634Y-102178789D01*
X154125599Y-102297170D01*
X154125597Y-102297176D01*
X154100600Y-102422843D01*
X154100600Y-103273489D01*
X154080915Y-103340528D01*
X154079703Y-103342379D01*
X154041708Y-103399242D01*
X154041702Y-103399253D01*
X153981364Y-103544923D01*
X153981361Y-103544935D01*
X153950600Y-103699578D01*
X153950600Y-103857271D01*
X153981361Y-104011914D01*
X153981364Y-104011926D01*
X154041702Y-104157597D01*
X154041709Y-104157610D01*
X154129310Y-104288713D01*
X154129313Y-104288717D01*
X154240807Y-104400211D01*
X154240811Y-104400214D01*
X154371914Y-104487815D01*
X154371927Y-104487822D01*
X154457783Y-104523384D01*
X154517603Y-104548162D01*
X154657488Y-104575987D01*
X154672253Y-104578924D01*
X154672256Y-104578925D01*
X154720710Y-104578925D01*
X154787749Y-104598610D01*
X154833504Y-104651414D01*
X154844710Y-104702925D01*
X154844710Y-104941685D01*
X154844711Y-104941694D01*
X154856262Y-105049135D01*
X154856264Y-105049147D01*
X154867470Y-105100657D01*
X154901593Y-105203182D01*
X154901596Y-105203188D01*
X154979381Y-105324222D01*
X154979389Y-105324233D01*
X155025133Y-105377025D01*
X155025136Y-105377028D01*
X155025140Y-105377032D01*
X155133874Y-105471252D01*
X155133877Y-105471253D01*
X155133878Y-105471254D01*
X155221947Y-105511475D01*
X155264751Y-105531023D01*
X155331790Y-105550708D01*
X155331794Y-105550709D01*
X155474210Y-105571185D01*
X155474213Y-105571185D01*
X156546784Y-105571185D01*
X156546784Y-105571184D01*
X156605284Y-105567787D01*
X156633800Y-105564464D01*
X156691544Y-105554312D01*
X156825433Y-105501632D01*
X156886149Y-105467057D01*
X156999771Y-105378792D01*
X157083925Y-105262089D01*
X157116310Y-105200178D01*
X157164176Y-105064497D01*
X157178674Y-104991609D01*
X157185729Y-104968351D01*
X157198620Y-104937228D01*
X157210078Y-104915794D01*
X157210080Y-104915791D01*
X157228796Y-104887781D01*
X157244208Y-104869001D01*
X157268034Y-104845174D01*
X157286818Y-104829759D01*
X157314831Y-104811041D01*
X157336265Y-104799585D01*
X157367388Y-104786693D01*
X157390638Y-104779640D01*
X157423690Y-104773066D01*
X157447874Y-104770685D01*
X157481562Y-104770685D01*
X157505747Y-104773066D01*
X157538799Y-104779641D01*
X157562045Y-104786691D01*
X157593178Y-104799587D01*
X157614610Y-104811044D01*
X157642618Y-104829759D01*
X157661405Y-104845177D01*
X157685222Y-104868993D01*
X157700645Y-104887785D01*
X157719358Y-104915791D01*
X157730818Y-104937231D01*
X157743709Y-104968354D01*
X157750764Y-104991609D01*
X157757337Y-105024654D01*
X157759720Y-105048844D01*
X157759720Y-105082530D01*
X157757337Y-105106721D01*
X157745589Y-105165778D01*
X157745588Y-105165789D01*
X157735895Y-105268911D01*
X157736345Y-105319467D01*
X157747876Y-105422399D01*
X157798153Y-105557201D01*
X157798157Y-105557211D01*
X157830567Y-105616568D01*
X157831341Y-105618048D01*
X157831639Y-105618530D01*
X157831642Y-105618536D01*
X157917370Y-105733057D01*
X157917862Y-105733714D01*
X157917863Y-105733716D01*
X157917865Y-105733718D01*
X158344012Y-106159870D01*
X158377496Y-106221193D01*
X158380330Y-106247550D01*
X158380330Y-106759302D01*
X158371685Y-106788741D01*
X158365163Y-106818727D01*
X158361407Y-106823743D01*
X158360645Y-106826341D01*
X158344012Y-106846982D01*
X158307750Y-106883245D01*
X158246428Y-106916731D01*
X158220068Y-106919565D01*
X149483810Y-106919565D01*
X149416771Y-106899880D01*
X149371016Y-106847076D01*
X149359810Y-106795565D01*
X149359810Y-104989778D01*
X150999500Y-104989778D01*
X150999500Y-105210222D01*
X151008796Y-105268916D01*
X151033985Y-105427952D01*
X151102103Y-105637603D01*
X151102104Y-105637606D01*
X151202187Y-105834025D01*
X151331752Y-106012358D01*
X151331756Y-106012363D01*
X151487636Y-106168243D01*
X151487641Y-106168247D01*
X151597270Y-106247896D01*
X151665978Y-106297815D01*
X151769377Y-106350500D01*
X151862393Y-106397895D01*
X151862396Y-106397896D01*
X151967221Y-106431955D01*
X152072049Y-106466015D01*
X152289778Y-106500500D01*
X152289779Y-106500500D01*
X152510221Y-106500500D01*
X152510222Y-106500500D01*
X152727951Y-106466015D01*
X152937606Y-106397895D01*
X153134022Y-106297815D01*
X153312365Y-106168242D01*
X153468242Y-106012365D01*
X153597815Y-105834022D01*
X153697895Y-105637606D01*
X153766015Y-105427951D01*
X153800500Y-105210222D01*
X153800500Y-104989778D01*
X153766015Y-104772049D01*
X153717277Y-104622047D01*
X153697896Y-104562396D01*
X153697895Y-104562393D01*
X153621465Y-104412394D01*
X153597815Y-104365978D01*
X153541679Y-104288713D01*
X153468247Y-104187641D01*
X153468243Y-104187636D01*
X153312363Y-104031756D01*
X153312358Y-104031752D01*
X153134025Y-103902187D01*
X153134024Y-103902186D01*
X153134022Y-103902185D01*
X153051299Y-103860035D01*
X152937606Y-103802104D01*
X152937603Y-103802103D01*
X152727952Y-103733985D01*
X152619086Y-103716742D01*
X152510222Y-103699500D01*
X152289778Y-103699500D01*
X152217201Y-103710995D01*
X152072047Y-103733985D01*
X151862396Y-103802103D01*
X151862393Y-103802104D01*
X151665974Y-103902187D01*
X151487641Y-104031752D01*
X151487636Y-104031756D01*
X151331756Y-104187636D01*
X151331752Y-104187641D01*
X151202187Y-104365974D01*
X151102104Y-104562393D01*
X151102103Y-104562396D01*
X151033985Y-104772047D01*
X151007823Y-104937230D01*
X150999500Y-104989778D01*
X149359810Y-104989778D01*
X149359810Y-103236995D01*
X148658485Y-103236995D01*
X148591446Y-103217310D01*
X148545691Y-103164506D01*
X148535747Y-103095348D01*
X148548000Y-103056700D01*
X148593692Y-102967024D01*
X148593692Y-102967023D01*
X148593694Y-102967020D01*
X148654519Y-102779821D01*
X148657891Y-102758530D01*
X148685310Y-102585417D01*
X148685310Y-102388573D01*
X148673922Y-102316677D01*
X148663452Y-102250572D01*
X148672406Y-102181281D01*
X148698241Y-102143498D01*
X150479747Y-100361994D01*
X150541070Y-100328509D01*
X150567428Y-100325675D01*
X155693032Y-100325675D01*
X155760071Y-100345360D01*
G37*
G04 #@! TD.AperFunction*
G04 #@! TD*
G04 #@! TA.AperFunction,Conductor*
G04 #@! TO.N,+5*
G36*
X157316839Y-100943636D02*
G01*
X157361186Y-100972137D01*
X157712185Y-101323136D01*
X157721245Y-101339729D01*
X157734376Y-101353335D01*
X157744788Y-101382844D01*
X157745670Y-101384459D01*
X157746119Y-101386616D01*
X157746120Y-101386618D01*
X157749551Y-101403861D01*
X157749552Y-101403869D01*
X157761167Y-101462261D01*
X157761169Y-101462269D01*
X157810204Y-101580650D01*
X157881396Y-101687198D01*
X157881397Y-101687199D01*
X158128791Y-101934592D01*
X158162276Y-101995915D01*
X158165110Y-102022273D01*
X158165110Y-102028385D01*
X158165110Y-102451185D01*
X158165110Y-103485995D01*
X160829130Y-103485995D01*
X161510759Y-103485995D01*
X161577798Y-103505680D01*
X161598437Y-103522311D01*
X162042810Y-103966676D01*
X162076296Y-104027998D01*
X162079130Y-104054357D01*
X162079130Y-106948437D01*
X162059445Y-107015476D01*
X162006641Y-107061231D01*
X161979322Y-107070054D01*
X161845638Y-107096646D01*
X161845628Y-107096649D01*
X161699957Y-107156987D01*
X161699944Y-107156994D01*
X161568841Y-107244595D01*
X161568837Y-107244598D01*
X161457343Y-107356092D01*
X161457340Y-107356096D01*
X161369739Y-107487199D01*
X161369732Y-107487212D01*
X161309394Y-107632883D01*
X161309391Y-107632895D01*
X161278630Y-107787538D01*
X161278630Y-107945231D01*
X161309391Y-108099874D01*
X161309394Y-108099886D01*
X161369732Y-108245557D01*
X161369739Y-108245570D01*
X161457340Y-108376673D01*
X161457343Y-108376677D01*
X161568837Y-108488171D01*
X161568841Y-108488174D01*
X161699944Y-108575775D01*
X161699957Y-108575782D01*
X161845628Y-108636120D01*
X161845633Y-108636122D01*
X161897260Y-108646391D01*
X161979321Y-108662715D01*
X162041232Y-108695100D01*
X162075807Y-108755816D01*
X162079130Y-108784332D01*
X162079130Y-110535387D01*
X162059445Y-110602426D01*
X162006641Y-110648181D01*
X161955132Y-110659387D01*
X157929123Y-110659464D01*
X157862084Y-110639781D01*
X157841440Y-110623145D01*
X157373289Y-110154994D01*
X157339804Y-110093671D01*
X157336970Y-110067313D01*
X157336970Y-109503595D01*
X143930396Y-109503600D01*
X143863357Y-109483915D01*
X143842715Y-109467281D01*
X143761392Y-109385958D01*
X143761388Y-109385955D01*
X143630285Y-109298354D01*
X143630272Y-109298347D01*
X143484601Y-109238009D01*
X143484589Y-109238006D01*
X143329945Y-109207245D01*
X143329942Y-109207245D01*
X143172258Y-109207245D01*
X143172255Y-109207245D01*
X143017610Y-109238006D01*
X143017598Y-109238009D01*
X142871927Y-109298347D01*
X142871914Y-109298354D01*
X142740811Y-109385955D01*
X142740807Y-109385958D01*
X142659484Y-109467282D01*
X142598161Y-109500767D01*
X142571803Y-109503601D01*
X135804050Y-109503604D01*
X135737011Y-109483919D01*
X135691256Y-109431116D01*
X135680050Y-109379604D01*
X135680050Y-105960545D01*
X135699735Y-105893506D01*
X135752539Y-105847751D01*
X135804050Y-105836545D01*
X137366788Y-105836545D01*
X137433827Y-105856230D01*
X137454469Y-105872864D01*
X138845014Y-107263409D01*
X138878499Y-107324732D01*
X138878950Y-107326898D01*
X138880261Y-107333491D01*
X138880264Y-107333501D01*
X138940602Y-107479172D01*
X138940609Y-107479185D01*
X139028210Y-107610288D01*
X139028213Y-107610292D01*
X139139707Y-107721786D01*
X139139711Y-107721789D01*
X139270814Y-107809390D01*
X139270827Y-107809397D01*
X139416498Y-107869735D01*
X139416503Y-107869737D01*
X139571153Y-107900499D01*
X139571156Y-107900500D01*
X139571158Y-107900500D01*
X139728844Y-107900500D01*
X139728845Y-107900499D01*
X139883497Y-107869737D01*
X140029179Y-107809394D01*
X140160289Y-107721789D01*
X140271789Y-107610289D01*
X140312698Y-107549065D01*
X140358730Y-107480174D01*
X140412342Y-107435369D01*
X140461832Y-107425065D01*
X146060310Y-107425065D01*
X146127349Y-107444750D01*
X146173104Y-107497554D01*
X146184310Y-107549065D01*
X146184310Y-107685417D01*
X146215100Y-107879821D01*
X146275927Y-108067024D01*
X146365286Y-108242400D01*
X146480982Y-108401641D01*
X146620164Y-108540823D01*
X146779405Y-108656519D01*
X146799750Y-108666885D01*
X146954780Y-108745877D01*
X146954782Y-108745877D01*
X146954785Y-108745879D01*
X147055127Y-108778482D01*
X147141983Y-108806704D01*
X147336388Y-108837495D01*
X147336393Y-108837495D01*
X147533232Y-108837495D01*
X147727636Y-108806704D01*
X147914835Y-108745879D01*
X148090215Y-108656519D01*
X148249456Y-108540823D01*
X148388638Y-108401641D01*
X148504334Y-108242400D01*
X148593694Y-108067020D01*
X148654519Y-107879821D01*
X148665673Y-107809397D01*
X148685310Y-107685417D01*
X148685310Y-107549065D01*
X148704995Y-107482026D01*
X148757799Y-107436271D01*
X148809310Y-107425065D01*
X158480821Y-107425065D01*
X158480820Y-107425064D01*
X158885830Y-107020045D01*
X158885830Y-105986805D01*
X158275310Y-105376278D01*
X158241826Y-105314954D01*
X158241375Y-105264406D01*
X158265219Y-105144531D01*
X158265220Y-105144529D01*
X158265220Y-104986840D01*
X158265219Y-104986838D01*
X158256237Y-104941685D01*
X158234457Y-104832188D01*
X158189019Y-104722489D01*
X158174117Y-104686512D01*
X158174110Y-104686499D01*
X158086509Y-104555396D01*
X158086506Y-104555392D01*
X157975012Y-104443898D01*
X157975008Y-104443895D01*
X157843905Y-104356294D01*
X157843892Y-104356287D01*
X157698221Y-104295949D01*
X157698209Y-104295946D01*
X157543565Y-104265185D01*
X157543562Y-104265185D01*
X157385878Y-104265185D01*
X157385875Y-104265185D01*
X157231230Y-104295946D01*
X157231218Y-104295949D01*
X157085547Y-104356287D01*
X157085534Y-104356294D01*
X156954431Y-104443895D01*
X156954427Y-104443898D01*
X156842933Y-104555392D01*
X156842930Y-104555396D01*
X156755329Y-104686499D01*
X156755322Y-104686512D01*
X156694984Y-104832183D01*
X156694981Y-104832195D01*
X156668390Y-104965876D01*
X156636005Y-105027787D01*
X156575289Y-105062362D01*
X156546773Y-105065685D01*
X155474210Y-105065685D01*
X155407171Y-105046000D01*
X155361416Y-104993196D01*
X155350210Y-104941685D01*
X155350210Y-104360270D01*
X155369895Y-104293231D01*
X155371108Y-104291379D01*
X155372889Y-104288714D01*
X155460494Y-104157604D01*
X155520837Y-104011922D01*
X155551600Y-103857267D01*
X155551600Y-103699583D01*
X155551600Y-103699580D01*
X155551599Y-103699578D01*
X155520838Y-103544935D01*
X155520837Y-103544928D01*
X155460494Y-103399246D01*
X155422496Y-103342378D01*
X155401620Y-103275701D01*
X155401600Y-103273489D01*
X155401600Y-102807723D01*
X155421285Y-102740684D01*
X155437919Y-102720042D01*
X157185824Y-100972137D01*
X157247147Y-100938652D01*
X157316839Y-100943636D01*
G37*
G04 #@! TD.AperFunction*
G04 #@! TD*
M02*
