G04 #@! TF.GenerationSoftware,KiCad,Pcbnew,9.0.4*
G04 #@! TF.CreationDate,2025-10-31T22:35:57+03:00*
G04 #@! TF.ProjectId,ECAD_main,45434144-5f6d-4616-996e-2e6b69636164,rev?*
G04 #@! TF.SameCoordinates,Original*
G04 #@! TF.FileFunction,Paste,Top*
G04 #@! TF.FilePolarity,Positive*
%FSLAX46Y46*%
G04 Gerber Fmt 4.6, Leading zero omitted, Abs format (unit mm)*
G04 Created by KiCad (PCBNEW 9.0.4) date 2025-10-31 22:35:57*
%MOMM*%
%LPD*%
G01*
G04 APERTURE LIST*
%ADD10R,1.063700X1.062130*%
%ADD11R,2.000000X1.000000*%
%ADD12R,0.750000X1.700000*%
%ADD13R,1.274350X0.532130*%
%ADD14R,1.463950X0.600000*%
%ADD15R,1.062130X1.063700*%
G04 APERTURE END LIST*
D10*
G04 #@! TO.C,R10*
X146670610Y-105000000D03*
X148329390Y-105000000D03*
G04 #@! TD*
G04 #@! TO.C,R8*
X159510610Y-109990000D03*
X161169390Y-109990000D03*
G04 #@! TD*
D11*
G04 #@! TO.C,*
X134780050Y-102013095D03*
G04 #@! TD*
D12*
G04 #@! TO.C,HL1*
X142400000Y-102450000D03*
X142400000Y-107450000D03*
G04 #@! TD*
D10*
G04 #@! TO.C,C3*
X157219310Y-107890080D03*
X155560530Y-107890080D03*
G04 #@! TD*
D11*
G04 #@! TO.C,*
X134780050Y-104013095D03*
G04 #@! TD*
D10*
G04 #@! TO.C,R7*
X161168780Y-107870000D03*
X159510000Y-107870000D03*
G04 #@! TD*
G04 #@! TO.C,C4*
X159450690Y-100159920D03*
X161109470Y-100159920D03*
G04 #@! TD*
G04 #@! TO.C,R6*
X157230000Y-110040000D03*
X155571220Y-110040000D03*
G04 #@! TD*
G04 #@! TO.C,R2*
X139629390Y-103850000D03*
X137970610Y-103850000D03*
G04 #@! TD*
D11*
G04 #@! TO.C,*
X134780050Y-106013095D03*
G04 #@! TD*
G04 #@! TO.C,*
X134780050Y-108013095D03*
G04 #@! TD*
D10*
G04 #@! TO.C,R4*
X137970610Y-108440000D03*
X139629390Y-108440000D03*
G04 #@! TD*
D13*
G04 #@! TO.C,VT2*
X144644870Y-108080000D03*
G36*
G01*
X144007695Y-109980000D02*
X144007695Y-109980000D01*
G75*
G02*
X144273760Y-109713935I266065J0D01*
G01*
X145015980Y-109713935D01*
G75*
G02*
X145282045Y-109980000I0J-266065D01*
G01*
X145282045Y-109980000D01*
G75*
G02*
X145015980Y-110246065I-266065J0D01*
G01*
X144273760Y-110246065D01*
G75*
G02*
X144007695Y-109980000I0J266065D01*
G01*
G37*
G36*
G01*
X145677955Y-109030000D02*
X145677955Y-109030000D01*
G75*
G02*
X145944020Y-108763935I266065J0D01*
G01*
X146686240Y-108763935D01*
G75*
G02*
X146952305Y-109030000I0J-266065D01*
G01*
X146952305Y-109030000D01*
G75*
G02*
X146686240Y-109296065I-266065J0D01*
G01*
X145944020Y-109296065D01*
G75*
G02*
X145677955Y-109030000I0J266065D01*
G01*
G37*
G04 #@! TD*
G04 #@! TO.C,VT1*
X144619740Y-99860000D03*
G36*
G01*
X143982565Y-101760000D02*
X143982565Y-101760000D01*
G75*
G02*
X144248630Y-101493935I266065J0D01*
G01*
X144990850Y-101493935D01*
G75*
G02*
X145256915Y-101760000I0J-266065D01*
G01*
X145256915Y-101760000D01*
G75*
G02*
X144990850Y-102026065I-266065J0D01*
G01*
X144248630Y-102026065D01*
G75*
G02*
X143982565Y-101760000I0J266065D01*
G01*
G37*
G36*
G01*
X145652825Y-100810000D02*
X145652825Y-100810000D01*
G75*
G02*
X145918890Y-100543935I266065J0D01*
G01*
X146661110Y-100543935D01*
G75*
G02*
X146927175Y-100810000I0J-266065D01*
G01*
X146927175Y-100810000D01*
G75*
G02*
X146661110Y-101076065I-266065J0D01*
G01*
X145918890Y-101076065D01*
G75*
G02*
X145652825Y-100810000I0J266065D01*
G01*
G37*
G04 #@! TD*
D10*
G04 #@! TO.C,R9*
X161119390Y-102220000D03*
X159460610Y-102220000D03*
G04 #@! TD*
D14*
G04 #@! TO.C,DD1*
X155907130Y-104168685D03*
G36*
G01*
X155175155Y-105070955D02*
X155175155Y-105070955D01*
G75*
G02*
X155475155Y-104770955I300000J0D01*
G01*
X156339105Y-104770955D01*
G75*
G02*
X156639105Y-105070955I0J-300000D01*
G01*
X156639105Y-105070955D01*
G75*
G02*
X156339105Y-105370955I-300000J0D01*
G01*
X155475155Y-105370955D01*
G75*
G02*
X155175155Y-105070955I0J300000D01*
G01*
G37*
G36*
G01*
X155175155Y-105973235D02*
X155175155Y-105973235D01*
G75*
G02*
X155475155Y-105673235I300000J0D01*
G01*
X156339105Y-105673235D01*
G75*
G02*
X156639105Y-105973235I0J-300000D01*
G01*
X156639105Y-105973235D01*
G75*
G02*
X156339105Y-106273235I-300000J0D01*
G01*
X155475155Y-106273235D01*
G75*
G02*
X155175155Y-105973235I0J300000D01*
G01*
G37*
G36*
G01*
X157226065Y-105985385D02*
X157226065Y-105985385D01*
G75*
G02*
X157526065Y-105685385I300000J0D01*
G01*
X158390015Y-105685385D01*
G75*
G02*
X158690015Y-105985385I0J-300000D01*
G01*
X158690015Y-105985385D01*
G75*
G02*
X158390015Y-106285385I-300000J0D01*
G01*
X157526065Y-106285385D01*
G75*
G02*
X157226065Y-105985385I0J300000D01*
G01*
G37*
G36*
G01*
X157226065Y-104140545D02*
X157226065Y-104140545D01*
G75*
G02*
X157526065Y-103840545I300000J0D01*
G01*
X158390015Y-103840545D01*
G75*
G02*
X158690015Y-104140545I0J-300000D01*
G01*
X158690015Y-104140545D01*
G75*
G02*
X158390015Y-104440545I-300000J0D01*
G01*
X157526065Y-104440545D01*
G75*
G02*
X157226065Y-104140545I0J300000D01*
G01*
G37*
G04 #@! TD*
D12*
G04 #@! TO.C,HL2*
X152400000Y-102600000D03*
X152400000Y-107600000D03*
G04 #@! TD*
D10*
G04 #@! TO.C,R1*
X138000000Y-101500000D03*
X139658780Y-101500000D03*
G04 #@! TD*
G04 #@! TO.C,R3*
X155580610Y-100170000D03*
X157239390Y-100170000D03*
G04 #@! TD*
D15*
G04 #@! TO.C,C2*
X161062200Y-104217065D03*
X161062200Y-105875845D03*
G04 #@! TD*
D10*
G04 #@! TO.C,C1*
X157219310Y-102270080D03*
X155560530Y-102270080D03*
G04 #@! TD*
G04 #@! TO.C,R5*
X139630000Y-106160000D03*
X137971220Y-106160000D03*
G04 #@! TD*
M02*
